<svg viewBox="0 0 248.5 49.9" xmlns="http://www.w3.org/2000/svg"><g fill="#ef3024"><path d="m237.3 21.3 10.4-11.4h-7.7l-8.5 9.5v-9.5h-6.1v24h6.1v-10.1l9.1 10.1h7.9z"/><path d="m214.5 18.8h-8.4v-8.9h-6.2v24h6.2v-9.5h8.4v9.5h6.2v-24h-6.2z"/><path d="m36.4 22.9c-.1 4.5-.7 5.4-3.2 5.4v5.6h.9c6.3 0 7.8-3.2 8-10.4l.3-8h5.9v18.4h6.1v-24h-17.5z"/><path d="m69.7 17.2h-4.4v-7.3h-6.1v24h10.7c6.7 0 9.1-4.3 9.1-8.4-.2-5.4-3.5-8.3-9.3-8.3zm-.5 11.4h-4v-6.1h4c2.1 0 3.4.9 3.4 2.9 0 2.2-1.2 3.2-3.4 3.2z"/><path d="m98.8 9.3v-8.9h-6.1v8.9c-7 .6-11.8 5.6-11.8 12.5s4.7 12 11.8 12.6v9h6.1v-9c7-.6 11.8-5.6 11.8-12.6s-4.8-11.9-11.8-12.5zm-6.1 19.3c-3.4-.5-5.5-3-5.5-6.8s2.1-6.3 5.5-6.8zm6.1 0v-13.5c3.4.5 5.5 3 5.5 6.8s-2.1 6.3-5.5 6.7z"/><path d="m133.6 26.5v-8.1c0-5.9-3.7-9.6-10.1-9.6s-10 3.9-10.3 8h6.2c.2-.9 1.2-2.4 4-2.4 2.4 0 3.9 1.1 3.9 4h-6.1c-5.5 0-8.7 2.9-8.7 7.6 0 5 3.5 8.4 8.6 8.4a7.87 7.87 0 0 0 6.7-3.1c.8 1.6 2.6 2.5 4.9 2.5h2.1v-5.5c-.8 0-1.2-.5-1.2-1.8zm-6.2-1.6c0 2.8-2 4.3-4.5 4.3-2.2 0-4-.8-4-3.2s1.9-2.7 3.6-2.7h4.9z"/><path d="m159.9 13.3h-6.9v-6.8h15.9v-6.1h-22.3v33.4h13.3c7.4 0 11.6-3.7 11.6-10.4 0-6.3-4.3-10.1-11.6-10.1zm-.3 14.5h-6.6v-8.7h6.6c3.4 0 5.3 1.6 5.3 4.3 0 2.9-1.9 4.4-5.3 4.4z"/><path d="m194.9 26.5v-8.1c0-5.9-3.7-9.6-10.1-9.6s-10 3.9-10.3 8h6.2c.2-.9 1.2-2.4 4-2.4 2.4 0 3.9 1.1 3.9 4h-6.1c-5.5 0-8.7 2.9-8.7 7.6 0 5 3.5 8.4 8.6 8.4a7.87 7.87 0 0 0 6.7-3.1c.8 1.6 2.6 2.5 4.9 2.5h2.1v-5.5c-.7 0-1.2-.5-1.2-1.8zm-6.1-1.6c0 2.8-2 4.3-4.5 4.3-2.2 0-4-.8-4-3.2s1.9-2.7 3.6-2.7h4.9z"/><path d="m0 43.1h32.8v6.8h-32.8z"/><path d="m22.4 5c-.9-2.8-2-5-5.7-5s-4.8 2.2-5.8 5l-10.2 28.9h6.7l2.3-6.9h13l2.2 6.9h7.2c-.1 0-.1 0-9.7-28.9zm-10.7 16.2 4.6-13.7h.2l4.3 13.7z"/></g></svg>