<svg viewBox="0 0 249 43.9" xmlns="http://www.w3.org/2000/svg"><path d="m149.4 2.8c3.1-.1 4.8-.2 6.1-.8a9.19 9.19 0 0 0 3.1-2l3.1 3.1a12.9 12.9 0 0 1 -4.5 2.8 29 29 0 0 1 -7.8 1.2 9.52 9.52 0 0 0 -9.4 8.5 13.1 13.1 0 1 1 -4.3 9.7v-8.6a13.7 13.7 0 0 1 13.7-13.9zm64 19.8v-10.7h4.3v26.1h-4.3v-11.3h-13.7v11.3h-4.3v-26.1h4.3v10.8h13.7zm23.4 2.3 12.2 13.4h-6.1l-10.1-11.1h-4.7c0 6.3 0 10 .1 11.1h-4.3c.1-2.6.1-7 .1-13.1s0-10.5-.1-13.1h4.3c-.1 2.2-.1 5.9-.1 11h4.8l9.8-11h5.4zm-48.9 10.1a1.89 1.89 0 0 0 1.7-1.2l2.7 2.7a6.33 6.33 0 0 1 -4.8 2.3c-2.9 0-5.1-1.1-5.6-3.4-2.3 2.7-5.1 3.4-8.7 3.4-5 0-8.2-2.7-8.2-6.8s3.1-7 8.3-8.1a73.44 73.44 0 0 1 8.5-1.2v-2c0-3-2.5-5.2-6.1-5.2a6.75 6.75 0 0 0 -5.2 2l-2.9-2.9a11.48 11.48 0 0 1 8.4-3.1c5.8 0 10.1 3.6 10.1 8.7v12.8a1.79 1.79 0 0 0 1.8 2zm-6.1-4.4v-3.9a79.8 79.8 0 0 0 -8.6 1.2c-2.3.7-3.7 1.9-3.7 3.7 0 2.1 1.7 3.3 4.2 3.3a10.48 10.48 0 0 0 8.1-4.3zm-33.1 3.5a8.8 8.8 0 1 0 -8.8-8.8 8.88 8.88 0 0 0 8.8 8.8zm-125.1-21.7v22.4h3.5v9.1h-4.2v-5.4h-18.7v5.4h-4.2v-9.2a7.26 7.26 0 0 0 4.9-4.2 14 14 0 0 0 .9-4 127.43 127.43 0 0 0 .4-14.1zm-4.1 22.3v-18.6h-8.9c-.2 11.1-1 15.9-4.2 18.6zm43.7-9.5c0-3.5.1-7 .1-12.8h18.6v26.1h-4.3v-22.3h-10c0 8.5-.2 14.1-1.4 17.6a11.53 11.53 0 0 1 -4.2 5.7l-3.1-3.1a9.37 9.37 0 0 0 3.3-4.4c.8-1.4.9-3.3 1-6.8zm-19.8-13.4c7.1 0 13.3 5.2 13.3 12.8a23 23 0 0 1 -.2 2.8h-22.1c.8 4.7 4.4 7.6 9.4 7.6 3.4 0 6.7-1.7 8.1-4.2l2.9 3c-2.3 3.3-6.4 5.2-11.1 5.2-7.7 0-13.5-5.6-13.5-13.6s5.6-13.6 13.2-13.6zm-9.1 11.7h18.1a9.33 9.33 0 0 0 -3-5.7c-4.7-4.3-14.8-1.6-15.1 5.7zm83.2-11.2a13.1 13.1 0 0 1 0 26.2h-17.7a13.1 13.1 0 0 1 0-26.2zm-.2 22.4a9.3 9.3 0 1 0 -9.2-9.3 9.2 9.2 0 0 0 9.2 9.3z" fill="#f55e64" fill-rule="evenodd"/></svg>