<?xml version="1.0" encoding="UTF-8"?>
<svg viewBox="0 0 269 59" version="1.1" xmlns="http://www.w3.org/2000/svg" xmlns:xlink="http://www.w3.org/1999/xlink">
    <!-- Generator: Sketch 64 (93537) - https://sketch.com -->
    <title>локобанк</title>
    <desc>Created with Sketch.</desc>
    <g id="Page-1" stroke="none" stroke-width="1" fill="none" fill-rule="evenodd">
        <g id="банки" transform="translate(-114.000000, -3110.000000)" fill-rule="nonzero">
            <g id="локобанк" transform="translate(114.000000, 3110.000000)">
                <path d="M48.4778074,58.9971313 L12.5221926,58.9971313 C5.76850485,59.1426328 0.169959282,53.7352092 0,46.9024187 L0,12.0838915 C0.177276169,5.2564988 5.77365272,-0.142708253 12.5221926,0.00287624148 L48.4778074,0.00287624148 C55.2263473,-0.142708253 60.8227238,5.2564988 61,12.0838915 L61,46.9024187 C60.8300407,53.7352092 55.2314951,59.1426328 48.4778074,58.9971313 L48.4778074,58.9971313 Z" id="Path" fill="#FFFFFF"></path>
                <path d="M27.7698321,8.81169373 C28.6907549,8.28660026 29.7319743,8.00703636 30.792938,8 C28.609986,8.04401218 26.6028238,9.20267627 25.4783455,11.0679271 L6.84276144,41.8022286 C6.0063778,43.2109055 5.78098278,44.8980693 6.21840395,46.4757715 C6.65582513,48.0534737 7.71842075,49.3859472 9.16185634,50.1668013 C12.2319274,51.8725937 16.1047875,50.8804241 17.9688953,47.9105679 L31,26.3525328 L25.4783455,17.1762664 C24.5889956,15.7849404 24.3291897,14.0844909 24.7627151,12.4924101 C25.1962405,10.9003294 26.2829471,9.5640645 27.756028,8.81169373" id="Path" fill="#00A1DE"></path>
                <path d="M55.1496843,40.8187672 L36.5199278,10.0819381 C35.3744871,8.21617127 33.3589569,7.05603743 31.1655978,7 C32.2204132,7.04692334 33.2520558,7.32402533 34.1877583,7.81176048 C35.6549588,8.57255503 36.7392564,9.90681299 37.1814728,11.4956083 C37.6236892,13.0844037 37.3840834,14.7849543 36.5199278,16.1907797 L31,25.3678007 L44.0546293,46.9138501 C45.9268821,49.8709073 49.783496,50.865332 52.8589142,49.1840278 C54.3044156,48.4049619 55.3653804,47.0679825 55.7933134,45.4862321 C56.2212463,43.9044818 55.9785561,42.2169076 55.1220846,40.8187672" id="Path" fill="#0039A6"></path>
                <path d="M33.8307927,8.79610195 C32.9013303,8.28109497 31.8504559,8.0069012 30.7796541,8 L30.3059614,8 C29.2358675,8.04138453 28.1887681,8.31335147 27.2408906,8.79610195 C25.7604966,9.53946147 24.6659379,10.8455517 24.2193592,12.4015668 C23.7727804,13.9575818 24.0144031,15.6233778 24.886359,17 L30.4592149,26 L36.0320708,17 C36.951466,15.6467785 37.2322341,13.9783583 36.8040845,12.4124292 C36.3759349,10.8465001 35.2793994,9.53130436 33.7889963,8.79610195" id="Path" fill="#002C77"></path>
                <path d="M36.9730713,44.2040683 C37.094215,46.860077 35.5877208,49.3221391 33.1696766,50.4199528 C30.7516324,51.5177665 27.9097272,51.0299168 25.994815,49.188295 C24.0799028,47.3466732 23.4781973,44.5227115 24.4757095,42.0587345 C25.4732217,39.5947575 27.8687659,37.9877184 30.5236588,38.0014975 C34.0212494,37.9261771 36.919105,40.7015333 37,44.2040683" id="Path" fill="#EEAF30"></path>
                <path d="M87.3831791,16.5967297 C87.3559089,15.8669225 87.6069937,15.1542104 88.0850886,14.6043376 C88.6218058,14.1649985 89.3092218,13.9561865 89.998136,14.0232232 L103.361943,14.0232232 C104.082055,13.9201676 104.808428,14.1637784 105.322757,14.6808409 C105.837087,15.1979033 106.07941,15.9281356 105.976899,16.6520739 L105.976899,40.7268115 C105.976899,41.0173687 105.976899,41.1972374 105.811744,41.2525816 C105.608533,41.3435905 105.387166,41.3862053 105.164887,41.3771062 L101.737917,41.3771062 C101.538062,41.3831077 101.339733,41.3403828 101.159873,41.2525816 C101.036007,41.2525816 100.980955,40.9620245 100.980955,40.7268115 L100.980955,18.1740401 L91.9799982,18.1740401 L91.7460283,21.5638738 C91.5120585,24.4832817 91.3331404,27.0982963 91.0991706,29.3950816 C90.9090877,31.4116042 90.5218555,33.4043963 89.9430843,35.3445857 C89.4274186,36.8866775 88.5924691,38.3013726 87.4932825,39.4954025 C86.2494302,40.7053709 84.7043064,41.5561195 83.0203298,41.9582205 C82.794294,42.0139265 82.558219,42.0139265 82.3321832,41.9582205 C82.1532651,41.9582205 82.0293987,41.7230076 81.9192953,41.4324504 L81.0522306,39.0941569 C80.9825898,38.9067781 80.9825898,38.7004213 81.0522306,38.5130425 C81.0522306,38.3331738 81.2724375,38.2224854 81.575222,38.0979609 C82.5990838,37.722011 83.5157864,37.0997115 84.2452307,36.2854375 C84.9425082,35.4261954 85.4576964,34.4327202 85.7591531,33.3660297 C86.1663202,31.8530315 86.4380737,30.3064568 86.5711661,28.7447869 C86.7363213,26.9460996 86.9152394,24.6631504 87.1492092,21.9097752 L87.3831791,16.5967297" id="Path" fill="#0039A6"></path>
                <path d="M129.973351,31.4723966 C130.170305,34.2870623 129.270201,37.0709207 127.450841,39.2740618 C125.462032,41.1922267 122.710024,42.1775703 119.911185,41.9735999 C117.15028,42.172557 114.438769,41.1852892 112.496958,39.2740618 C110.701473,37.0768216 109.821349,34.307688 110.030195,31.5128897 C109.992073,29.9989215 110.252217,28.4917881 110.796703,27.0721495 C111.228913,25.8412372 111.927355,24.7138218 112.845371,23.7652153 C113.729871,22.8564287 114.816552,22.1547861 116.022897,21.7135663 C117.324117,21.2436239 118.703701,21.0102563 120.09236,21.0251841 C122.853265,20.826227 125.564776,21.8134948 127.506587,23.7247222 C129.259362,25.8967168 130.13617,28.6122368 129.973351,31.3644151 M125.09557,31.4723966 C125.109127,30.5940005 125.029739,29.7165698 124.858649,28.8538447 C124.707094,28.1032047 124.449151,27.3764524 124.092141,26.6942142 C123.746008,26.061907 123.211988,25.5447018 122.559124,25.2094682 C121.793795,24.8422281 120.945885,24.6659228 120.09236,24.696556 C119.2937,24.6793023 118.503249,24.8556136 117.792835,25.2094682 C117.128579,25.5379568 116.562381,26.0259131 116.148326,26.6267257 C115.694801,27.2675816 115.37304,27.9870793 115.200643,28.7458631 C115.013929,29.6071943 114.915894,30.4843392 114.907976,31.3644151 C114.805218,33.1048861 115.190463,34.8398687 116.022897,36.385556 C116.894042,37.6464068 118.406967,38.3453951 119.966931,38.2077442 C120.823852,38.2908941 121.687012,38.1265158 122.447631,37.7353251 C123.072274,37.3864856 123.595026,36.8894834 123.966712,36.2910722 C124.394757,35.6431775 124.697029,34.925016 124.858649,34.1719347 C124.999758,33.3144704 125.078923,32.4485156 125.09557,31.5803782 L125.09557,31.4723966 Z" id="Shape" fill="#0039A6"></path>
                <path d="M173.958442,31.4737224 C174.163369,34.28453 173.272755,37.0676518 171.462184,39.2744051 C169.472082,41.1923285 166.718285,42.1775479 163.917627,41.9736032 C161.154928,42.1725353 158.441655,41.1853918 156.498581,39.2744051 C154.701929,37.0774416 153.821233,34.3086567 154.030214,31.5142104 C153.992068,30.0004329 154.252381,28.4934892 154.797221,27.0740294 C155.229712,25.8432722 155.928607,24.7159988 156.847221,23.7675117 C157.732295,22.8588395 158.819682,22.1572853 160.026812,21.7161211 C161.328878,21.2462378 162.709358,21.0128996 164.09892,21.0278256 C166.863283,20.8175984 169.58133,21.8064783 171.517966,23.7270237 C173.247303,25.911153 174.121755,28.6172759 173.986333,31.3657545 M169.049599,31.4737224 C169.056197,30.5956943 168.976817,29.7190362 168.812524,28.8555002 C168.660871,28.1049547 168.402761,27.378294 168.045518,26.6961417 C167.691209,26.0696403 167.158876,25.5544687 166.511504,25.2115827 C165.744528,24.8475911 164.896908,24.6714829 164.043138,24.6987351 C163.243776,24.6797501 162.452374,24.8561367 161.742118,25.2115827 C161.074899,25.5364356 160.507469,26.0250745 160.09654,26.6286617 C159.646751,27.2783549 159.307738,27.9937607 159.092458,28.7475323 C158.898683,29.6076757 158.800506,30.4854064 158.799601,31.3657545 C158.696777,33.1060064 159.082272,34.8407704 159.915247,36.3862631 C160.786959,37.646955 162.300867,38.3458553 163.861845,38.2082218 C165.440287,38.2789456 166.944066,37.5538488 167.836334,36.2917911 C168.265882,35.6460579 168.564078,34.9268912 168.714905,34.1729206 C168.943564,33.3276158 169.046865,32.4551406 169.021708,31.5816903 L169.049599,31.4737224 Z" id="Shape" fill="#0039A6"></path>
                <path d="M180.301451,41.9851088 C179.648847,42.0563307 178.994144,41.87016 178.481721,41.4676514 C178.108647,40.9961546 177.943572,40.3979072 178.023316,39.8063409 L178.023316,17.6101429 C177.91985,16.8976506 178.16443,16.1789637 178.683548,15.6700763 C179.202666,15.161189 179.935802,14.9214298 180.662619,15.0228561 L196.137272,15.0228561 C196.353005,14.9958326 196.570261,15.0602203 196.734588,15.199881 C196.810504,15.381253 196.848301,15.5757779 196.845717,15.7718075 L196.845717,18.4135636 C196.856325,18.5926717 196.817961,18.7713086 196.734588,18.931021 C196.734588,19.0535767 196.442876,19.1080459 196.137272,19.1080459 L183.065774,19.1080459 L183.065774,25.0860403 L189.802944,25.0860403 C191.15122,25.0715894 192.495794,25.2271953 193.803572,25.5490285 C194.781805,25.7948368 195.717877,26.1802388 196.581786,26.6928816 C197.268288,27.1399418 197.881812,27.6862817 198.401517,28.3133403 C198.855594,28.8640814 199.212431,29.4854447 199.457238,30.1516757 C199.648736,30.7711988 199.792679,31.4038999 199.887861,32.0444803 C199.887861,32.6164069 199.99899,33.1338642 199.99899,33.5968524 C200.018449,34.7526535 199.756539,35.8963491 199.234981,36.9330908 C198.741509,37.9424237 198.041748,38.8416003 197.179102,39.5748468 C196.274033,40.3473882 195.220942,40.9353104 194.081394,41.3042439 C192.870868,41.7169436 191.598555,41.9286518 190.316913,41.9306396 L180.301451,41.9306396 M194.67871,33.3653583 C194.699543,32.2112658 194.255314,31.0956683 193.442404,30.2606141 C192.451179,29.3777751 191.140141,28.9215783 189.802944,28.9942052 L182.996319,28.9942052 L182.996319,37.7365114 L189.691815,37.7365114 C190.518298,37.7625914 191.340027,37.6042785 192.09497,37.2735232 C192.682673,37.0298642 193.205447,36.6571581 193.622988,36.1841393 C193.990187,35.7603985 194.268675,35.2699242 194.442561,34.7407056 C194.609411,34.3010519 194.689547,33.8343302 194.67871,33.3653583 L194.67871,33.3653583 Z" id="Shape" fill="#0039A6"></path>
                <path d="M220.977951,39.443253 C221.033047,39.9838967 220.729323,40.497334 220.228889,40.7095236 C219.624354,40.9911465 218.989037,41.2013414 218.335804,41.3358509 C217.641383,41.5358402 216.930276,41.6725565 216.211191,41.7443253 C215.462128,41.8532518 214.767543,41.9213309 214.018481,41.9757941 C213.269419,42.0302574 212.656549,41.9757941 212.002822,41.9757941 C210.510687,42.0061861 209.021419,41.8321011 207.576544,41.4583932 C206.58653,41.191518 205.660245,40.7284942 204.852681,40.096812 C204.205822,39.5606815 203.708529,38.8665256 203.409034,38.0816718 C203.129277,37.2858014 202.990998,36.4471244 203.000454,35.6035939 C203.005508,34.7211138 203.162137,33.8460577 203.463511,33.0165896 C203.776338,32.1784249 204.290871,31.4302059 204.961636,30.8380596 C205.746904,30.1425442 206.677447,29.6308772 207.685499,29.3403202 C209.004066,28.9147496 210.386522,28.7212555 211.771294,28.7684561 L216.265668,28.7684561 L216.265668,28.1421287 C216.26758,27.68241 216.208036,27.2244973 216.088617,26.7805475 C215.982291,26.3674466 215.765757,25.9909633 215.462128,25.6912825 C215.093049,25.3739527 214.661591,25.1374076 214.195532,24.9968761 C213.520453,24.819298 212.823036,24.7413176 212.125396,24.7654073 C211.122254,24.7673575 210.120679,24.844732 209.129146,24.9968761 C208.039601,25.1738816 207.167965,25.3508872 206.541476,25.5142769 C206.255471,25.5142769 206.023942,25.6368193 205.914988,25.5142769 C205.758942,25.4366253 205.648118,25.290577 205.615363,25.1194184 L205.043352,22.9272726 C204.934397,22.532414 205.043352,22.246482 205.397454,22.1239397 C206.591408,21.7157645 207.823317,21.428393 209.074669,21.2661435 C210.334664,21.1041404 211.60411,21.0268106 212.874458,21.0346747 C215.073089,20.839125 217.265061,21.4756538 219.01677,22.8183461 C220.417668,24.1589826 221.138326,26.0602306 220.977951,27.9923548 L220.977951,39.443253 M216.211191,32.2268724 L212.356924,32.2268724 C211.857894,32.2006535 211.35783,32.2006535 210.8588,32.2268724 C210.339044,32.2725644 209.831667,32.4109043 209.360675,32.6353468 C208.907632,32.8616994 208.515363,33.1931748 208.216652,33.6020695 C207.895759,34.1404979 207.735124,34.7592557 207.753595,35.3857409 C207.656588,36.3096119 208.102395,37.2063035 208.897618,37.6868132 C209.860481,38.1633568 210.929945,38.3837599 212.002822,38.3267564 L212.819981,38.3267564 C213.185402,38.3091361 213.549324,38.2682054 213.909526,38.2042141 L215.108026,38.0408243 C215.501946,37.9751057 215.88932,37.8748701 216.265668,37.7412765 L216.265668,32.2268724 L216.211191,32.2268724 Z" id="Shape" fill="#0039A6"></path>
                <path d="M230.422163,40.8891769 C230.301601,40.9965028 230.073874,40.9965028 229.738979,40.9965028 L226.858891,40.9965028 C226.636924,41.0152081 226.415135,40.9584968 226.22929,40.835514 C226.06982,40.6657696 225.987417,40.4376096 226.001562,40.2049744 L226.001562,21.7985852 C226.001562,21.5168547 226.001562,21.3424502 226.22929,21.2351243 C226.4139,21.1083757 226.635485,21.0469948 226.858891,21.0607197 L229.738979,21.0607197 C229.971189,21.0566857 230.20234,21.0929987 230.422163,21.1680456 C230.547842,21.3324727 230.605414,21.5390809 230.582912,21.7449222 L230.582912,28.45279 L239.357136,28.45279 L239.357136,21.7449222 C239.357136,21.4497761 239.357136,21.2887872 239.584864,21.1680456 C239.781734,21.0359263 240.019352,20.978813 240.254652,21.0070568 L243.148137,21.0070568 C243.380678,20.997802 243.612777,21.034264 243.83132,21.1143827 C243.95491,21.2746899 244.012439,21.4763439 243.992069,21.6778436 L243.992069,40.0976485 C244.02249,40.3165758 243.96465,40.5386264 243.83132,40.7147723 C243.710758,40.835514 243.483031,40.835514 243.148137,40.835514 L240.254652,40.835514 C240.019168,40.8441823 239.78631,40.7835489 239.584864,40.6611094 C239.410719,40.5537835 239.357136,40.379379 239.357136,40.0439856 L239.357136,31.9945442 L230.582912,31.9945442 L230.582912,40.0439856 C230.649891,40.6074465 230.582912,40.781851 230.422163,40.8891769" id="Path" fill="#0039A6"></path>
                <path d="M268.986034,40.2044661 L262.002793,30.3212925 L268.315642,21.688643 C268.403459,21.5479759 268.403459,21.3721294 268.315642,21.2314622 C268.243306,21.0749173 268.073307,20.9821712 267.896648,21.0028718 L263.594972,21.0028718 C263.459617,21.015906 263.334628,21.0784805 263.24581,21.1776762 L257.659218,28.5598018 L253.776536,28.5598018 L253.776536,21.634857 C253.776536,21.3524807 253.776536,21.1776762 253.594972,21.1238903 C253.412452,21.0385612 253.21119,20.9970393 253.00838,21.0028718 L249.712291,21.0028718 C249.527964,21.0025103 249.346142,21.0439701 249.181564,21.1238903 C249.055866,21.1238903 249,21.3524807 249,21.634857 L249,40.365824 C249,40.6616469 249,40.8230048 249.181564,40.8767908 C249.343775,40.9627839 249.527249,41.0046204 249.712291,40.9978092 L253.00838,40.9978092 C253.211767,41.0104036 253.414803,40.9685157 253.594972,40.8767908 C253.72067,40.8767908 253.776536,40.6616469 253.776536,40.365824 L253.776536,31.9617649 L257.435754,31.9617649 L263.804469,40.7692188 C263.893287,40.8684146 264.018277,40.9309891 264.153631,40.9440233 L268.581006,40.9440233 C268.750606,40.9367316 268.906349,40.8517634 269,40.7154329 C269,40.4868425 269,40.312038 268.930168,40.2044661" id="Path" fill="#0039A6"></path>
                <path d="M152.832626,40.2044272 L145.868923,30.3207703 L152.16411,21.6876985 C152.281615,21.5564119 152.281615,21.361782 152.16411,21.2304954 C152.088635,21.0769064 151.921537,20.9854828 151.746288,21.0018938 L147.568066,21.0018938 C147.432225,21.0120669 147.306521,21.0751788 147.219881,21.1767068 L141.648919,28.5591933 L137.763173,28.5591933 L137.763173,21.6339099 C137.763173,21.3515197 137.763173,21.1767068 137.582116,21.1229182 C137.400107,21.0375849 137.199408,20.996061 136.997165,21.0018938 L133.710298,21.0018938 C133.526486,21.0015323 133.345173,21.0429941 133.181056,21.1229182 C133.05571,21.1229182 133,21.3515197 133,21.6339099 L133,40.365793 C133,40.6616303 133,40.8229962 133.181056,40.8767848 C133.342814,40.9627821 133.525774,41.0046207 133.710298,40.9978091 L136.997165,40.9978091 C137.199984,41.0104041 137.402452,40.9685141 137.582116,40.8767848 C137.707463,40.8767848 137.763173,40.6616303 137.763173,40.365793 L137.763173,31.9613228 L141.412153,31.9613228 L147.832687,40.7692076 C147.913029,40.8779836 148.042503,40.9429883 148.180872,40.9440205 L152.59586,40.9440205 C152.762061,40.939316 152.914315,40.8531413 152.999755,40.7154189 C153.003451,40.5391142 152.96534,40.3643281 152.888335,40.2044272" id="Path" fill="#0039A6"></path>
            </g>
        </g>
    </g>
</svg>