<svg viewBox="0 0 246.05 40.9" xmlns="http://www.w3.org/2000/svg"><g fill="#253c77"><path d="m60.8 32.7h-3.1a.47.47 0 0 1 -.5-.5v-23.5a.47.47 0 0 1 .5-.5h3.7c.3 0 .5.1.5.4l4.2 7.8c.9 1.6 1.8 3.6 2.9 6h.1c1.1-2.4 2-4.4 2.9-6l4.1-7.8a.55.55 0 0 1 .6-.4h3.7a.47.47 0 0 1 .5.5v23.5a.47.47 0 0 1 -.5.5h-3.1a.47.47 0 0 1 -.5-.5v-6.9c0-2.7.1-6.3.3-10.7h-.1c-.7 1.5-1.7 3.6-3.1 6.3l-3 5.9a.55.55 0 0 1 -.6.4h-2.6a.55.55 0 0 1 -.6-.4l-3-5.9c-1.4-2.7-2.4-4.8-3.1-6.3h-.1c.2 4.5.3 8.1.3 10.7v6.9c.2.3 0 .5-.4.5z"/><path d="m100.1 26.2a6.28 6.28 0 0 1 -2.1 5 8.51 8.51 0 0 1 -5.7 1.9 8 8 0 0 1 -5.7-1.9 6.28 6.28 0 0 1 -2.1-5v-4.6a6.49 6.49 0 0 1 2.1-5.1 8 8 0 0 1 5.7-1.9 8 8 0 0 1 5.7 1.9 6.64 6.64 0 0 1 2.1 5.1zm-11.6 0c0 2.2 1.3 3.4 3.8 3.4a3.93 3.93 0 0 0 2.8-.9 3 3 0 0 0 1-2.5v-4.6a3.25 3.25 0 0 0 -1-2.6 4.1 4.1 0 0 0 -2.8-.9 3.93 3.93 0 0 0 -2.8.9 3.25 3.25 0 0 0 -1 2.6z"/><path d="m105.3 37.3h-2.8a.47.47 0 0 1 -.5-.5v-7.2a.47.47 0 0 1 .5-.5h.8c.8-.5 1.3-1.7 1.7-3.6a95.63 95.63 0 0 0 1.2-10.2.47.47 0 0 1 .5-.5h11.4a.47.47 0 0 1 .5.5v13.8h1.7a.47.47 0 0 1 .5.5v7.1a.47.47 0 0 1 -.5.5h-2.8a.47.47 0 0 1 -.5-.5v-4.1h-11.3v4.1c.1.4-.1.6-.4.6zm4.6-18.9c-.5 5.7-1.2 9.2-2.4 10.7h7.1v-10.7z"/><path d="m134.4 27.9v-12.5a.47.47 0 0 1 .5-.5h2.9a.47.47 0 0 1 .5.5v16.1c0 5.3-2.5 8-7.6 8a9.84 9.84 0 0 1 -6.7-2.2c-.3-.2-.3-.4-.1-.7l1.5-2.1c.2-.3.4-.4.7-.2a8.57 8.57 0 0 0 4.7 1.6 3.8 3.8 0 0 0 2.9-1 5.13 5.13 0 0 0 .9-3.4 12.42 12.42 0 0 1 -3.7.6 7.57 7.57 0 0 1 -5.1-1.8 6.19 6.19 0 0 1 -2.2-5.2v-9.8a.47.47 0 0 1 .5-.5h3a.47.47 0 0 1 .5.5v9.7a3.39 3.39 0 0 0 1.1 2.7 4.28 4.28 0 0 0 2.8.9 7.27 7.27 0 0 0 2.9-.7z"/><path d="m147.7 26.8a8.59 8.59 0 0 1 -2 4.6 5.74 5.74 0 0 1 -4.2 1.4.47.47 0 0 1 -.5-.5v-2.5a.47.47 0 0 1 .5-.5 1.94 1.94 0 0 0 1.6-.8 6 6 0 0 0 .9-2.7 86.86 86.86 0 0 0 .9-10.3.47.47 0 0 1 .5-.5h11.6a.47.47 0 0 1 .5.5v16.8a.47.47 0 0 1 -.5.5h-2.9a.47.47 0 0 1 -.5-.5v-13.9h-5a77.38 77.38 0 0 1 -.9 8.4z"/><path d="m168.6 32.7h-7.1a.47.47 0 0 1 -.5-.5v-16.8a.47.47 0 0 1 .5-.5h2.9a.47.47 0 0 1 .5.5v5.3h3.6a7.6 7.6 0 0 1 5.1 1.6 5.48 5.48 0 0 1 1.9 4.4 5.29 5.29 0 0 1 -1.9 4.5 7.46 7.46 0 0 1 -5 1.5zm-3.7-8.7v5.4h2.9c2.5 0 3.7-.9 3.7-2.7a2.58 2.58 0 0 0 -.9-2.1 5.22 5.22 0 0 0 -2.8-.7 27.15 27.15 0 0 1 -2.9.1z"/><path d="m180.9 18h6.5c2.8 0 4.9.6 6.2 1.8a7.1 7.1 0 0 1 2 5.5 7.09 7.09 0 0 1 -2.1 5.5 8.38 8.38 0 0 1 -5.9 1.9h-8.2a.27.27 0 0 1 -.3-.3v-24a.27.27 0 0 1 .3-.3h14.4a.27.27 0 0 1 .3.3v1.2a.27.27 0 0 1 -.3.3h-12.8zm0 12.9h6.6a7 7 0 0 0 4.6-1.4 5.09 5.09 0 0 0 1.6-4.2 5.38 5.38 0 0 0 -1.5-4.2 7.05 7.05 0 0 0 -4.8-1.4h-6.5z"/><path d="m199 16.4a10.65 10.65 0 0 1 6.3-1.8 6.52 6.52 0 0 1 4.8 1.7 6.52 6.52 0 0 1 1.7 4.8v10.4c0 .2-.1.3-.2.3a17 17 0 0 1 -6.4 1.2 9.36 9.36 0 0 1 -5.2-1.4 4.61 4.61 0 0 1 -2-4.1 4.59 4.59 0 0 1 1.9-4 9 9 0 0 1 5.3-1.4 35.47 35.47 0 0 1 4.8.5v-1.5q0-4.8-4.8-4.8a9.85 9.85 0 0 0 -5.2 1.4.25.25 0 0 1 -.4-.1l-.6-.9a.19.19 0 0 1 0-.3zm.8 11.1a3.39 3.39 0 0 0 1.5 2.9 6.65 6.65 0 0 0 3.9 1 16.09 16.09 0 0 0 4.8-.8v-6.4a26.07 26.07 0 0 0 -4.8-.5c-3.6 0-5.4 1.3-5.4 3.8z"/><path d="m216.8 32.7h-1.2a.27.27 0 0 1 -.3-.3v-17.1a.27.27 0 0 1 .3-.3h1.2a.27.27 0 0 1 .3.3v7.4h9.8v-7.4a.27.27 0 0 1 .3-.3h1.2a.27.27 0 0 1 .3.3v17.1a.27.27 0 0 1 -.3.3h-1.2a.27.27 0 0 1 -.3-.3v-8.1h-9.8v8.1a.27.27 0 0 1 -.3.3z"/><path d="m245.8 32.7h-1.5c-.2 0-.2 0-.3-.2l-7.4-8.4-2.6 2.4v5.9a.27.27 0 0 1 -.3.3h-1.2a.27.27 0 0 1 -.3-.3v-17.1a.27.27 0 0 1 .3-.3h1.2a.27.27 0 0 1 .3.3v9l9.5-9.2c.1-.1.2-.1.4-.1h1.5c.1 0 .2 0 .2.1s0 .1-.1.2l-7.8 7.5 8.2 9.5c.3.3.1.4-.1.4z"/><path d="m32.7 8.2v-8.2h-16.3v8.2h8.1v8.1h8.2v8.2h8.2v-16.3z"/><path d="m32.7 32.7h8.2v8.2h-8.2z"/><path d="m24.5 24.5h8.2v8.2h-8.2z"/><path d="m24.5 24.5v-8.2h-8.1v-8.1h-8.2v-8.2h-8.2v16.3h8.2v8.2h-8.2v16.3h8.2v-8.1h8.2v-8.2z"/><path d="m16.4 32.7h8.2v8.2h-8.2z"/></g></svg>