<svg enable-background="new 0 0 250 56.7" height="56.7" viewBox="0 0 250 56.7" width="250" xmlns="http://www.w3.org/2000/svg"><path d="m1.5 10.8c0-5.5 4.5-10 10-10h35.1c5.5 0 10 4.5 10 10v35.2c0 5.5-4.5 10-10 10h-35.1c-5.5 0-10-4.5-10-10z" fill="none" stroke="#2042aa" stroke-width="1.1245"/><g fill="#2042aa"><path clip-rule="evenodd" d="m15 14.3h5.6v5.6h5.6v5.6h5.6v5.6h-5.6v5.6h-5.6v5.6h-5.6v-5.6-5.6h5.6v-5.6h-5.6v-5.6zm16.9 22.5v-5.6h5.6v5.6zm5.6 0h5.6v5.6h-5.6zm-5.6 0h-5.6v5.6h5.6zm5.6-5.6v-5.6h-5.6v-5.6h-5.6v-5.6h5.6 5.6v5.6h5.6v5.6 5.6z" fill-rule="evenodd"/><path d="m88.4 38.8v-11.2l-5.5 9.3h-1.9l-5.5-9v11h-4.1v-18.9h3.6l7.1 11.7 6.7-11.7h3.6v18.8z"/><path d="m103.3 39c-1.5 0-2.9-.3-4.1-.9s-2.1-1.5-2.8-2.7c-.7-1.1-1-2.4-1-3.8s.3-2.7 1-3.8 1.6-2 2.8-2.6 2.6-1 4.1-1 2.9.3 4.1 1c1.2.6 2.1 1.5 2.8 2.6s1 2.4 1 3.8-.3 2.7-1 3.8-1.6 2-2.8 2.7c-1.2.6-2.5.9-4.1.9zm0-3.4c1.1 0 2-.4 2.6-1.1.7-.7 1.1-1.7 1.1-2.9s-.4-2.2-1.1-2.9-1.6-1.1-2.6-1.1c-1.1 0-2 .4-2.7 1.1s-1.1 1.7-1.1 2.9.4 2.2 1.1 2.9c.8.7 1.7 1.1 2.7 1.1z"/><path d="m129.9 35.3v6.5h-3.9v-3.1h-10.2v3.1h-3.9v-6.5h.6c.9 0 1.5-.5 1.9-1.6.3-1 .6-2.5.6-4.4l.2-5h12.6v11zm-11.1-5.7c-.1 1.5-.2 2.7-.4 3.6s-.5 1.6-.9 2.1h6.1v-7.6h-4.7z"/><path d="m146.8 24.3-6.5 15.3c-.7 1.7-1.5 2.8-2.5 3.5s-2.1 1-3.5 1c-.8 0-1.5-.1-2.2-.3s-1.3-.6-1.8-1l1.5-3c.3.3.7.5 1.1.7s.9.2 1.3.2c.6 0 1-.1 1.4-.4s.7-.7 1-1.4l.1-.1-6.3-14.5h4.3l4.1 9.8 4.1-9.8z"/><path d="m161.5 24.3v14.4h-4.2v-11h-4.6l-.1 2.5c-.1 1.9-.3 3.5-.5 4.7-.3 1.3-.8 2.2-1.4 3-.6.7-1.5 1.1-2.7 1.1-.6 0-1.3-.1-2.2-.3l.2-3.4c.3 0 .5.1.6.1.6 0 1.1-.2 1.4-.7s.5-1 .6-1.7.2-1.7.2-2.8l.2-5.8h12.5z"/><path d="m173.1 29c1.9 0 3.3.4 4.3 1.3 1 .8 1.5 2 1.5 3.5 0 1.6-.6 2.8-1.7 3.7s-2.7 1.3-4.7 1.3h-7.3v-14.5h4.2v4.7zm-1 6.8c.8 0 1.4-.2 1.9-.5.4-.4.6-.9.6-1.6s-.2-1.2-.6-1.5-1-.5-1.9-.5h-2.7v4.2h2.7z"/><path d="m189.6 25.3c1.4 0 2.6.3 3.6.9s1.8 1.3 2.4 2.4c.6 1 .9 2.2.9 3.5 0 1.4-.3 2.6-1 3.7s-1.6 1.9-2.8 2.5-2.6.9-4.1.9c-2.5 0-4.5-.8-6-2.4-1.4-1.6-2.2-4-2.2-7.1 0-2.9.6-5.2 1.9-6.9s3.2-2.9 5.8-3.4l6.9-1.4.6 3.6-6.1 1.2c-1.7.3-2.9.9-3.7 1.6-.8.8-1.3 1.8-1.4 3.2.6-.7 1.4-1.2 2.3-1.6.9-.5 1.9-.7 2.9-.7zm-1 10.6c1.1 0 1.9-.3 2.6-1s1-1.6 1-2.7-.3-2-1-2.6c-.6-.6-1.5-1-2.6-1s-2 .3-2.6 1c-.7.6-1 1.5-1 2.6s.3 2 1 2.7c.7.6 1.6 1 2.6 1z"/><path d="m204.5 24.1c2.2 0 4 .5 5.2 1.6s1.8 2.7 1.8 4.8v8.2h-3.9v-1.7c-.8 1.3-2.3 2-4.4 2-1.1 0-2.1-.2-2.9-.6s-1.4-.9-1.9-1.6c-.4-.7-.6-1.4-.6-2.3 0-1.3.5-2.4 1.5-3.2s2.6-1.2 4.7-1.2h3.3c0-.9-.3-1.6-.8-2.1-.6-.5-1.4-.8-2.5-.8-.8 0-1.5.1-2.3.4-.7.2-1.4.6-1.9 1l-1.5-2.9c.8-.6 1.7-1 2.8-1.3 1.1-.1 2.2-.3 3.4-.3zm-.3 12.1c.7 0 1.4-.2 1.9-.5.6-.3 1-.8 1.2-1.5v-1.5h-2.9c-1.7 0-2.6.6-2.6 1.7 0 .5.2 1 .6 1.3.5.3 1 .5 1.8.5z"/><path d="m214.9 24.3h4.2v5.7h6.3v-5.6h4.2v14.4h-4.2v-5.4h-6.4v5.4h-4.2v-14.5z"/><path d="m239.7 33.3h-2.2v5.5h-4.2v-14.5h4.2v5.6h2.3l3.9-5.6h4.5l-5.1 6.9 5.4 7.5h-5z"/></g></svg>