<svg viewBox="0 0 223.45 58" xmlns="http://www.w3.org/2000/svg"><path d="m58.8 57.9h-3.4v-10h5.9v1h-4.7v3.2h2.2c2 0 3.3.8 3.3 2.8v.1c0 1.9-1.3 2.9-3.3 2.9zm0-.9c1.5 0 2.1-.7 2.1-1.9v-.1c0-1.2-.7-1.9-2.2-1.9h-2.1v3.9z"/><path d="m63.2 55.9c0-1.7 1.8-2.3 3.7-2.3h1.1v-.5c0-1.2-.4-1.7-1.6-1.7-1 0-1.6.4-1.7 1.3h-1.2a2.59 2.59 0 0 1 2.9-2.3 2.39 2.39 0 0 1 2.7 2.6v4.8h-1.2v-.9a2.59 2.59 0 0 1 -2.3 1.1c-1.3 0-2.4-.6-2.4-2.1zm4.8-.5v-.9h-1c-1.5 0-2.5.4-2.5 1.4 0 .8.4 1.2 1.4 1.2s2.1-.6 2.1-1.7z"/><path d="m75.8 54.7h-3.6v3.3h-1.2v-7.3h1.2v3.1h3.6v-3.1h1.2v7.3h-1.2z"/><path d="m80.2 54.2v3.7h-1.2v-7.3h1.2v3.4l3-3.4h1.4l-3.1 3.4 3.4 3.9h-1.4z"/><path d="m21.7 0a21.7 21.7 0 1 0 21.7 21.7 21.68 21.68 0 0 0 -21.7-21.7zm-3.1 30.9-1.6 4.7a14.92 14.92 0 0 1 .1-28.2l1.6 4.7a9.7 9.7 0 0 0 -6.6 9.3 9.48 9.48 0 0 0 6.5 9.5zm7.4 4.9-1.5-4.8a9.85 9.85 0 0 0 .1-18.7l1.6-4.8a14.87 14.87 0 0 1 -.2 28.3z" fill="#00bef0"/><path d="m220.3 25.6 2.4 2.9a11 11 0 0 1 -8.1 3.3 12.66 12.66 0 0 1 -5.6-1.1c-3.2-1.6-4.8-4.8-4.8-8.7 0-5.9 4-10.3 9.9-10.3 6.6 0 9.8 4.9 9.3 11.3h-15a5 5 0 0 0 2.3 3.9 7.34 7.34 0 0 0 4.1 1 7.48 7.48 0 0 0 5.5-2.3zm-11.7-6.1h10.6a5 5 0 0 0 -5.2-4.3 5.3 5.3 0 0 0 -5.4 4.3zm-100.8 11.8h5.4l-8.5-9.9 8.4-9.3h-5.3l-6.4 7.4h-1.9v-7.4h-4.1v19.1h4.1v-7.6h1.9zm17.7-15.7c-3.5 0-5.8 2.7-5.8 6.1s2.3 6.1 5.8 6.1 5.7-2.6 5.7-6.1-2.1-6.1-5.7-6.1zm.7-3.9c5.4 0 9.4 4.2 9.4 10s-3.9 10.1-9.4 10.1a8.2 8.2 0 0 1 -6.2-2.5v10h-4.2v-27.2h4.1v2.3a7.59 7.59 0 0 1 6.3-2.7zm54.4.4h-17.1v3.8h6.5v15.3h4.2v-15.2h6.5v-3.9zm-88.1 0h-17.1v3.8h6.5v15.3h4.2v-15.2h6.5v-3.9zm-22.2 9.6a6 6 0 1 0 -12 0 6 6 0 1 0 12 0zm-16.2 0a9.91 9.91 0 0 1 10.3-10 10.05 10.05 0 1 1 -10.3 10zm146.8-9.6v19.1h-4.1v-12.3l-10 12.3h-3.3v-19.1h4.1v12.4l10-12.3h3.3zm-40.2 19.2h-4.1v-19.2h4.1zm-10.7-6.6a2.76 2.76 0 0 0 -2.8-2.9h-4.2v5.9h4.2a2.79 2.79 0 0 0 2.8-3zm4.2 0c0 3.8-2.8 6.5-6.8 6.5h-8.5v-19.1h4.1v6.2h4.7c4 0 6.5 2.6 6.5 6.4z"/></svg>