<svg fill="none" height="72" viewBox="0 0 180 72" width="180" xmlns="http://www.w3.org/2000/svg"><path d="m36.5464 9-18.2721 18.2738h18.2721v36.5459l18.2738-18.2298v-36.5899z" fill="#ea5616"/><g fill="#2c2d84"><path d="m18.2738 63.8197 18.2738-18.2738h-18.2738v-36.5459l-18.2738 18.2298v36.5899z"/><path clip-rule="evenodd" d="m120.378 36.3976c0 5.8032 3.599 10.4978 10.003 10.4978v-.0049c4.07 0 7.096-2.0983 8.953-5.0072l5.873 5.8748c-3.612 4.9247-9.356 7.8319-15.464 7.8265-10.597 0-18.959-8.59-18.959-19.187 0-11.3442 8.362-19.187 18.959-19.187 5.681-.0049 11.07 2.5136 14.71 6.8743l-5.832 5.8324c-1.029-1.2794-3.928-4.0256-8.422-4.0256-7.2 0-9.821 5.8471-9.821 10.5059zm-37.6915 18.2852h-9.5926v-36.5459h33.8031v36.5459h-9.5927v-28.3239h-14.6178zm75.4005-22.8528h8.196c7.771 0 13.252 3.6658 13.252 11.4256 0 7.7597-5.481 11.4272-12.796 11.4272h-18.246v-36.5459h27.845v8.222h-18.251zm7.281 15.0881h-7.282v-7.3023h7.282c2.262 0 4.557.892 4.557 3.6398 0 2.7477-2.291 3.6625-4.557 3.6625z" fill-rule="evenodd"/></g></svg>