<svg height="59" viewBox="0 0 255 59" width="255" xmlns="http://www.w3.org/2000/svg" xmlns:xlink="http://www.w3.org/1999/xlink"><mask id="a" fill="#fff"><path d="m.18572886.4392h188.58935814v57.8465143h-188.58935814z" fill="#fff" fill-rule="evenodd"/></mask><g fill="none" fill-rule="evenodd"><path d="m0-2h256v64h-256z" fill="#d8d8d8" opacity="0"/><g><path d="m0 .71377143.00171812 57.84685717 57.14641608.024-.0034362-57.87085717z" fill="#3a3c3d"/><path d="m1.53084564 56.9663429 53.95758386.0188571.0463893-54.64114286-54.01084565-.00342857z" fill="#ffe52b"/><g fill="#3a3c3d" transform="translate(2.718121 .3392)"><path d="m25.7667758 36.2694857 17.2018255 17.364 6.7333155-6.8125714-17.2190067-17.4085714 3.3554899-3.3702858.0017181-6.7731428 2.3916242-2.4222857.0051543 5.6177143 2.3383625 2.3331428 8.3998926-8.5097143 2.2696376 2.2714286c0-1.464-.426094-6.4971429-4.4207249-10.43828571-4.4739865-4.41428572-8.9514094-1.83428572-10.4942818-.27257143l-8.1112484 8.20800004 2.0170739 2.0382857-4.4688323 4.5068571-4.4671141-4.5068571 2.018792-2.0382857-8.1095302-8.20800004c-1.5428725-1.56171429-6.02029531-4.14171429-10.49600001.27257143-3.99463087 3.94114281-4.32794631 8.97771431-4.32794631 10.44000001l2.17857718-2.2731429 8.39817454 8.5097143 2.3417986-2.3571428v-5.5937143l2.3933423 2.4222857-.0034362 6.756 3.3623624 3.3874286-17.04891278 17.2354285 6.72644295 6.7937143z"/><path d="m24.9077691 24.6294857c1.6219061 0 3.0221745-.5965714 4.1166175-1.7108571v1.2291428h4.9344429v-15.67371426h-4.9344429v1.18457143c-.8659329-.88457143-2.2198121-1.66457143-4.3193557-1.66457143-4.4585235 0-7.693745 3.49028576-7.693745 8.30057146 0 4.8291428 3.3211275 8.3348571 7.8964832 8.3348571zm.8487517-12.1234286c2.1287517 0 3.6750604 1.5925715 3.6750604 3.7885715 0 2.1788571-1.5806711 3.8211428-3.6750604 3.8211428-2.0978255 0-3.6767785-1.6422857-3.6767785-3.8211428 0-2.196 1.5463087-3.7885715 3.6767785-3.7885715zm141.5405102 6.0702858-.271463-.0462858-.135732.2434286c-.639141 1.1314286-1.731866 1.7537143-3.082308 1.7537143-1.515383 0-2.298846-.7782857-2.630443-1.2394286-.33847-.4662857-.549799-1.1451428-.611651-1.8702857h10.968483v-.7474286c0-.9497142 0-3.8485714-1.855571-6.0942857-1.412295-1.7125714-3.443114-2.58171426-6.039194-2.58171426-2.412242 0-4.312484.72171429-5.810685 2.20971426-1.566926 1.584-2.360698 3.6445715-2.360698 6.1251429 0 2.5491428.797208 4.5428571 2.436295 6.0977143 1.534282 1.4811428 3.467168 2.2028571 5.903464 2.2028571 4.901798 0 6.863892-3.0617143 7.59753-4.8891428l.187275-.4662858-.493101-.0805714zm-3.55651-6.8262858c1.200966 0 2.517047.6874286 2.979221 2.184h-5.925798c.463892-1.4965714 1.762792-2.184 2.946577-2.184zm-158.28703375 3.9154286h2.45175839c2.58748996 0 4.61143626-.72 6.01514096-2.1428571 1.7267114-1.7468572 1.9844295-4.13657146 1.9844295-5.40171431 0-1.35771429-.3161342-3.91885715-2.4414497-5.83028572-1.7438926-1.55142857-3.60805365-1.85142857-6.23677848-1.85142857h-6.98072483v23.7085714h5.20762416zm0-10.57714284h1.12880537c.96042953 0 2.05487248.05142857 2.89331543.648.40204027.29828571 1.08757045 1.00114285 1.08757045 2.28171428 0 .94114286-.4003221 1.82571429-1.07038924 2.36228576-.83672483.636-1.83495302.636-2.63903356.636h-1.40026845zm39.57863085 1.57885714c1.0858524 0 4.721396-.27428571 5.9395436-3.80571429l.1185504-.34114285-.3230067-.15428572-2.7146309-1.30457143-.4449933-.21428571-.113396.48685714c-.312698 1.36628572-1.522255 1.85142857-2.4620671 1.85142857-1.2112751 0-2.2232483-.75942857-2.4620671-1.848l-.1082416-.492-.4501477.216-2.7163489 1.30457143-.3195705.15428572.1151141.34114285c1.2198657 3.53142858 4.8554094 3.80571429 5.9412617 3.80571429zm85.1792749 0c1.084135 0 4.719678-.27428571 5.939544-3.80571429l.115114-.33942857-.31957-.156-2.714631-1.30457143-.446712-.21428571-.111678.48685714c-.312698 1.36628572-1.522255 1.85142857-2.462067 1.85142857-1.211275 0-2.224966-.75942857-2.465503-1.848l-.106524-.492-.450147.216-2.714631 1.30457143-.323007.156.116832.33942857c1.221584 3.53142858 4.857128 3.80571429 5.94298 3.80571429zm-71.7641876 16.14c1.3281074.9582857 3.3176912 1.5325714 5.3278926 1.5428571v7.7657143h4.9344429v-7.7657143c2.0102014-.0102857 3.9997853-.5845714 5.3313289-1.5462857 1.1494228-.8057143 3.0840268-2.7274285 3.0840268-6.5091428 0-3.7131429-1.9311677-5.6725715-3.0840268-6.50914289-1.3968322-.99771428-3.1922685-1.50514285-5.3313289-1.51371428v-7.83257143h-4.9344429v7.83257143c-2.1390604.00857143-3.9344967.516-5.3296108 1.512-1.1545771.83828567-3.087463 2.79771427-3.087463 6.51085717 0 3.7817143 1.9363221 5.7034285 3.0891812 6.5125714zm10.2623355-10.0131429c.7508188.0325715 1.4621208.2382858 1.9913021.6051429.8985771.6222857 1.3538791 1.596 1.3538791 2.8954286 0 .8605714-.1357315 2.0948571-1.3160805 2.8937143-.498255.3531428-1.237047.5708571-2.0291007.6257142zm-6.9257449.6034286c.5291812-.3651428 1.2404832-.5708571 1.991302-.6034286v7.02c-.7937718-.0548571-1.5325638-.2725714-2.0222282-.6205714-1.1872215-.804-1.3246711-2.0382857-1.3246711-2.8988571 0-1.2994286.455302-2.2731429 1.3555973-2.8971429zm122.055302-4.92342856v5.25428576h-4.975678v-5.25428576h-4.932725v15.67371426h4.932725v-6.0462857h4.975678v6.0462857h4.936161v-15.67371426zm-69.635436 1.18457143c-.865933-.88457143-2.22153-1.66457143-4.321074-1.66457143-4.456805 0-7.693745 3.49028576-7.693745 8.30057146 0 4.8291428 3.321127 8.3348571 7.898201 8.3348571 1.621906 0 3.023893-.5965714 4.116618-1.7108571v1.2291428h4.934443v-15.67371426h-4.934443zm-3.267866 10.45714283c-2.094389 0-3.67506-1.6422857-3.67506-3.8211428 0-2.196 1.546308-3.7885715 3.67506-3.7885715 2.13047 0 3.67506 1.5925715 3.67506 3.7885715 0 2.1788571-1.578953 3.8211428-3.67506 3.8211428zm-62.9072752 4.032h4.934443v-15.67371426h-4.735141l-.1202684.16114286-6.071839 8.2028571v-8.36399996h-4.9344429v15.67371426h4.736859l.1185504-.1611428 6.0718389-8.2011429zm11.0664161 10.8017143-1.0308725 8.4994286h-8.760698l1.0755437-8.8542857h-5.2076242l-.042953.3548571-2.8366175 23.3365714h5.2093423l.042953-.3548571 1.194094-9.8365714h8.760698l-1.1837853 9.7388571-.0549798.4525714h5.2093423l.042953-.3548571 2.8348993-23.3365714h-5.2076241zm92.1600001-19.32c1.010255-.7885714 1.546309-1.836 1.546309-3.0788571 0-1.9354286-1.149423-3.02057146-1.834953-3.49200003-1.333262-.92571428-3.157906-1.06457143-4.125208-1.06457143-2.329772 0-4.176752.61542857-5.815839 1.94228572l-.298953.24000004 2.381315 3.2691428.323007-.2794286c.843597-.72 1.824644-1.0714285 3.003275-1.0714285.838443 0 1.840107.192 1.840107 1.1091428 0 .324-.101369.5331429-.336751.6994286-.254282.1714286-.768.2708571-1.403705.2708571h-2.058309v3.8262858h2.127034c.675221 0 1.204402.0411428 1.587543.2331428.462175.2485714.560108.6137143.560108.876 0 .8142857-.79549 1.2805714-2.182014 1.2805714-.979329 0-2.527355-.384-3.664751-1.4691428l-.31098-.2982857-2.305718 2.8782857-.221638.2777143.245691.2537143c2.048 2.1445714 4.71796 2.5971428 6.595866 2.5971428.762846 0 3.379544-.1011428 5.059866-1.3885714.690684-.5142857 1.853852-1.6937143 1.853852-3.7525714 0-1.5788572-.680376-2.5302858-1.250792-3.0462858-.377986-.3325714-.835006-.6051428-1.314362-.8125714zm-17.968107-6.9942857-6.073558 8.2028571v-8.36399996h-4.934442v15.67371426h4.736859l.11855-.1611428 6.075275-8.2028572v8.364h4.931007v-15.67371426h-4.733423zm-117.7995172 37.0251429c-1.3212349-1.3268572-3.1905504-1.9714286-5.71790609-1.9714286h-2.60295302l.54120805-4.4468572h8.67822816l.0412349-.3531428.5240269-4.2942857h-13.88757049l-.04295302.3548571-2.83489933 23.3365714h7.94115436c1.17519463 0 4.75060398 0 7.15253688-2.9245714 1.0154094-1.2548571 1.6511141-2.736 1.8401074-4.2908571.2611544-2.1531429-.3178523-4.0748572-1.6322147-5.4102857zm-3.7042685 5.3468571c-.2096107 1.7211429-1.6545503 2.6297143-4.17159732 2.6297143h-1.65283221l.6442953-5.3005714h1.81777181c1.41401342 0 2.40021472.3051428 2.92767782.9085714.3779866.432.5240269 1.0251428.4346846 1.7622857zm85.674094-41.22171429c-1.3968323-.99771428-3.1922685-1.50514285-5.333047-1.51371428v-7.83257143h-4.934443v7.83257143c-2.1390604.00857143-3.9344966.516-5.3296107 1.512-1.1528591.83828567-3.085745 2.79771427-3.085745 6.51085717 0 3.7834285 1.9363222 5.7034285 3.0891812 6.5125714 1.3263893.9582857 3.3159732 1.5325714 5.3261745 1.5428571v7.7657143h4.934443v-7.7657143c2.0102013-.0102857 3.9997852-.5845714 5.3313288-1.5462857 1.151141-.8057143 3.0857449-2.7274285 3.0857449-6.5091428 0-3.7114286-1.9328858-5.6708572-3.0840267-6.50914289zm-10.26749 10.02857139c-.7920537-.0548571-1.5308456-.2725714-2.02051-.6205714-1.1872215-.8022857-1.3246712-2.0382857-1.3246712-2.8988571 0-1.2977143.455302-2.2731429 1.3555973-2.8971429.525745-.3651428 1.2387651-.5708571 1.9895839-.6034286zm6.9652618-.6257142c-.4982551.3531428-1.237047.5708571-2.0308188.6257142v-7.02c.7525369.0325715 1.4638389.2382858 1.9930201.6051429.8985772.6222857 1.3538792 1.5977143 1.3538792 2.8954286 0 .8605714-.1374497 2.0965714-1.3160805 2.8937143zm-60.3627383 15.2194285-.0824698-.2914285h-3.8571812l-.1116778.2074285-12.9615034 23.9622857h5.6869799l.1133959-.2108571 2.4706578-4.5925714h8.5871677l1.4174497 4.8034285h5.5701477zm-6.4893423 14.6331429 3.4791947-6.732 1.7885637 6.732zm54.1792215-14.3245714-8.6627651 8.8388571 1.0343087-8.5062857.0532618-.4542857h-5.2076242l-.042953.3548571-2.8348993 23.3365714h5.2076241l1.207839-9.9462857.1202684-.108 6.5340134 9.8742857.1168322.18h6.8106309l-8.817396-12.6685714 10.5990873-10.3285714.711302-.6942857h-6.7144161z" mask="url(#a)" transform="translate(62.57047)"/></g></g></g></svg>