<svg fill="none" viewBox="0 0 158 26" xmlns="http://www.w3.org/2000/svg" xmlns:xlink="http://www.w3.org/1999/xlink"><linearGradient id="a" gradientUnits="userSpaceOnUse" x1="12.24" x2="21.8593" y1="24.1886" y2="21.9988"><stop offset=".1226" stop-color="#a3cd39"/><stop offset=".2846" stop-color="#86c339"/><stop offset=".8693" stop-color="#21a038"/></linearGradient><linearGradient id="b" gradientUnits="userSpaceOnUse" x1="4.44653" x2="1.18376" y1="21.8165" y2="12.317"><stop offset=".1444" stop-color="#f2e913"/><stop offset=".3037" stop-color="#e7e518"/><stop offset=".5823" stop-color="#cadb26"/><stop offset=".891" stop-color="#a3cd39"/></linearGradient><linearGradient id="c" gradientUnits="userSpaceOnUse" x1="4.14182" x2="13.0845" y1="21.3563" y2="24.7218"><stop offset=".1324" stop-color="#f2e913"/><stop offset=".2977" stop-color="#ebe716"/><stop offset=".5306" stop-color="#d9e01f"/><stop offset=".8023" stop-color="#bbd62d"/><stop offset=".9829" stop-color="#a3cd39"/></linearGradient><linearGradient id="d" gradientUnits="userSpaceOnUse" x1="4.69855" x2="13.1954" y1="4.3395" y2="1.07811"><stop offset=".0592" stop-color="#0fa8e0"/><stop offset=".5385" stop-color="#0099f9"/><stop offset=".9234" stop-color="#0291eb"/></linearGradient><linearGradient id="e" gradientUnits="userSpaceOnUse" x1="1.12596" x2="4.67706" y1="13.3638" y2="4.05919"><stop offset=".0698" stop-color="#a3cd39"/><stop offset=".2599" stop-color="#81c55f"/><stop offset=".9216" stop-color="#0fa8e0"/></linearGradient><linearGradient id="f" gradientUnits="userSpaceOnUse" x1="12.46" x2="20.6797" y1="1.00678" y2="3.56128"><stop offset=".0566" stop-color="#0291eb"/><stop offset=".79" stop-color="#0c8acb"/></linearGradient><g fill="#21a038"><path d="m71.2141 8.13739 3.2759-2.41415h-10.9646v14.50156h10.9646v-2.4142h-7.8359v-3.7126h6.6846v-2.4141h-6.6846v-3.54651z"/><path d="m55.248 11.3753h-3.7981v-3.23791h6.0794l3.2758-2.41415h-12.4933v14.50156h6.5232c3.6651 0 5.766-1.6617 5.766-4.5553.0095-2.7703-1.8943-4.2942-5.353-4.2942zm-.5436 6.4282h-3.264v-4.0141h3.264c1.9845 0 2.9103.6742 2.9103 2.0106 0 1.3365-.978 2.0035-2.9103 2.0035z"/><path d="m83.3728 5.72324h-5.9701v14.50156h3.1287v-4.1091h2.8485c3.7981 0 6.1719-2.0011 6.1719-5.2033 0-3.20229-2.369-5.18916-6.179-5.18916zm-.0664 7.97836h-2.775v-5.56421h2.775c2.0058 0 3.1096.98751 3.1096 2.78211s-1.1038 2.7821-3.1096 2.7821z"/><path d="m42.9396 17.0914c-.8289.4501-1.7582.6828-2.7014.6765-2.8201 0-4.8687-2.013-4.8687-4.7879 0-2.775 2.0486-4.788 4.8687-4.788 1.0202-.01467 2.0183.29725 2.8486.89018l2.2456-1.66166-.1496-.13056c-1.3103-1.15129-3.0622-1.76137-5.0633-1.76137-2.172 0-4.1423.73351-5.5499 2.06284-.7099.68571-1.2709 1.5102-1.6483 2.42217-.3773.9119-.5629 1.8918-.5451 2.8785-.0167.9985.1682 1.9901.5434 2.9155.3752.9255.9332 1.7657 1.6405 2.4707 1.4943 1.4111 3.4832 2.1783 5.538 2.1364 2.2552 0 4.2254-.7857 5.5595-2.2171l-2.0249-1.4931z"/><path d="m22.608 5.60693c.5724.73968 1.0568 1.54349 1.4433 2.39517l-10.9788 8.0923-4.58861-2.8771v-3.45858l4.58861 2.87468z"/><path d="m127.236 5.74224v14.50156h3.129v-5.9345h6.67v5.9345h3.126v-14.50156h-3.131v5.94636h-6.67v-5.94636zm-5.379 14.50156h3.29l-6.113-14.50393h-3.192l-6.255 14.50393h3.169l1.265-2.915h6.647zm-6.898-5.3458 2.423-5.82056 2.279 5.82056zm32.25-.5032h1.947l4.802 5.849h4.035l-6.409-7.5012 5.593-7.00036h-3.592l-4.662 6.21466h-1.726v-6.21466h-3.124v14.50156h3.131zm-47.9697-3.0005v-3.2379h8.1827v-2.41416h-11.3114v14.50156h6.5324c3.665 0 5.769-1.6617 5.769-4.5553 0-2.7702-1.899-4.2942-5.365-4.2942zm0 6.4354v-4.0213h3.2637c1.987 0 2.911.6718 2.911 2.0106 0 1.3389-.978 2.0107-2.911 2.0107z"/></g><path d="m13.0934 22.9976c-.1689 0-.3361-.0043-.5034-.0129l-.1508 2.9989c.2167.0104.435.0164.6542.0164 3.616 0 6.8897-1.4547 9.2587-3.8077l-2.142-2.1266c-1.8231 1.8101-4.3403 2.9319-7.1167 2.9319z" fill="url(#a)"/><path d="m3.02412 12.9998c0-.1678.00433-.3338.01299-.4999l-3.0206461-.1496c-.01039812.215-.0164639.4318-.0164639.6495 0 3.5899 1.46527 6.8401 3.83517 9.1922l2.14199-2.1267c-1.82398-1.81-2.95304-4.3092-2.95304-7.0655z" fill="url(#b)"/><path d="m13.0925 22.9972c-2.9565 0-5.61928-1.2716-7.4632-3.2932l-2.246 2.0173c2.39588 2.6274 5.85849 4.2782 9.7092 4.2782z" fill="url(#c)"/><path d="m26.1872 13.0001c0-.7949-.0719-1.5735-.2097-2.3287l-2.8187 2.0621c.0026.0886.0034.1772.0034.2666 0 2.9353-1.2807 5.579-3.317 7.4096l2.032 2.23c2.6471-2.3779 4.31-5.8156 4.31-9.6396z" fill="#21a038"/><path d="m13.0931 3.00327c.169 0 .3362.00601.5035.01376l.1507-3.0006843c-.2166-.01032347-.435-.0163457-.6542-.0163457-3.61594 0-6.88957 1.45474-9.25863 3.80763l2.142 2.12663c1.82317-1.81005 4.34123-2.93099 7.11663-2.93099z" fill="url(#d)"/><path d="m23.4543 5.05267c.6187.7932 1.1473 1.65948 1.5692 2.58431l-11.9309 8.72932-4.9842-3.1022v-3.73191l4.9842 3.10221z" fill="#21a038"/><path d="m6.3411 5.58983-2.03195-2.22984c-2.64632 2.37868-4.30915 5.81638-4.30915 9.63951h3.02499c-.00087-2.9353 1.27983-5.57897 3.31611-7.40967z" fill="url(#e)"/><path d="m18.7693 4.74792 2.5466-1.86338c-2.2477-1.80316-5.108-2.88454-8.2231-2.88454v3.00327c2.1047 0 4.0596.64435 5.6765 1.74465z" fill="url(#f)"/></svg>