<svg viewBox="0 0 249.66 47.31" xmlns="http://www.w3.org/2000/svg"><g fill="#1a9f29"><path d="m65.08 29.13a9.94 9.94 0 0 0 3.82 2.58 14.42 14.42 0 0 0 5.47.93 22.37 22.37 0 0 0 2.89-.21 7.9 7.9 0 0 0 2.38-.62c.72-.2 1.34-.51 2-.72s1-.52 1.45-.72l-.72-1.55-1.24.62c-.42.21-.83.31-1.35.52a7.93 7.93 0 0 1 -1.65.31 14.31 14.31 0 0 1 -2.17.1 7 7 0 0 1 -3.82-.93 7.51 7.51 0 0 1 -2.38-2.38 12.33 12.33 0 0 1 -1.13-3.61 31 31 0 0 1 -.31-4.55c0-1.24.1-2.58.2-3.92a9.45 9.45 0 0 1 .93-3.51 7.23 7.23 0 0 1 2.07-2.59 6.61 6.61 0 0 1 3.72-1 6.34 6.34 0 0 1 3.68 1.12 5.38 5.38 0 0 1 2 3.51h1.65v-5.07c-.51-.21-1-.42-1.65-.62a11.29 11.29 0 0 0 -2-.42c-.73-.1-1.35-.1-2.07-.2s-1.24-.11-1.76-.11a16.14 16.14 0 0 0 -5.78.91 10.67 10.67 0 0 0 -3.93 2.69 11.24 11.24 0 0 0 -2.27 4.23 19.74 19.74 0 0 0 -.72 5.69 17.54 17.54 0 0 0 .72 5.39 8.16 8.16 0 0 0 1.97 4.13z"/><path d="m166.1 31.81a8.68 8.68 0 0 0 3.41-1 5.76 5.76 0 0 0 2.37-2.58 9.78 9.78 0 0 0 .93-4.65 9.45 9.45 0 0 0 -.62-3.61 5.6 5.6 0 0 0 -2-2.48 10 10 0 0 0 -3.51-1.35 26 26 0 0 0 -5.27-.41h-2.17v-6.12c0-.62.1-1 .41-1.24a3.28 3.28 0 0 1 1.65-.21h3.1a16.62 16.62 0 0 1 2.38.1 2.72 2.72 0 0 1 1.45.52 2.85 2.85 0 0 1 .97 1.22 14.35 14.35 0 0 1 .72 2.17h1.34v-5.66h-19v.82a1.88 1.88 0 0 0 .51.11 1.52 1.52 0 0 1 .62.31 1.65 1.65 0 0 1 .31.62c0 .31.1.62.1 1v19.76a2.94 2.94 0 0 1 -.1 1 .62.62 0 0 1 -.31.62.89.89 0 0 1 -.62.31 1.41 1.41 0 0 1 -.51.1v.84h9.6a27.36 27.36 0 0 0 4.24-.19zm-6.3-1.81a1 1 0 0 1 -.31-.73c0-.31-.11-.72-.11-1.24v-10.78h2.17c2 0 3.41.52 4.24 1.55s1.24 2.69 1.24 5a11.51 11.51 0 0 1 -.42 3.61 5 5 0 0 1 -1.13 2.07 6.56 6.56 0 0 1 -1.55.93 11.75 11.75 0 0 1 -1.86.2c-.62-.1-1.14-.1-1.45-.2a2 2 0 0 1 -.82-.41z"/><path d="m138.93 31.19a2.16 2.16 0 0 0 -.52-.1 1.74 1.74 0 0 1 -.62-.31 1.82 1.82 0 0 1 -.31-.62c0-.31-.1-.62-.1-1v-7.16h2.62a22.59 22.59 0 0 0 3.83-.31 9.85 9.85 0 0 0 3.2-1.13 5.73 5.73 0 0 0 2.17-2.48 9.77 9.77 0 0 0 .82-4.24 9.89 9.89 0 0 0 -.72-3.92 6.35 6.35 0 0 0 -2.07-2.28 7 7 0 0 0 -3-.93c-1.14-.1-2.27-.2-3.51-.2h-10.16v.82a2.11 2.11 0 0 0 .52.11 1.52 1.52 0 0 1 .62.31 1.65 1.65 0 0 1 .31.62c0 .31.1.62.1 1v19.63a3 3 0 0 1 -.1 1 .63.63 0 0 1 -.31.62.89.89 0 0 1 -.62.31 1.42 1.42 0 0 1 -.52.1v.83h8.37zm-1.45-21.79a1.24 1.24 0 0 1 .11-.62.52.52 0 0 1 .2-.41.86.86 0 0 1 .62-.21c.31 0 .62-.1 1.14-.1a11.75 11.75 0 0 1 1.86.2 4.93 4.93 0 0 1 1.55.93 5.84 5.84 0 0 1 1.04 1.81 9.92 9.92 0 0 1 .31 2.68 10.56 10.56 0 0 1 -.93 5 3.49 3.49 0 0 1 -3.3 1.76h-2.59z"/><path d="m127.15 26.13h-1.65a17.21 17.21 0 0 1 -.62 2.38 2.46 2.46 0 0 1 -.82 1.34 2.05 2.05 0 0 1 -1.45.52 18.19 18.19 0 0 1 -2.58.1 15.15 15.15 0 0 1 -2.38-.1 3.48 3.48 0 0 1 -1.34-.41 1.07 1.07 0 0 1 -.52-.83 6.12 6.12 0 0 1 -.1-1.45v-8h4.44c.41 0 .83.1 1.24.1a4.88 4.88 0 0 1 1.24.21 3 3 0 0 1 1 .41v-3.4a3.18 3.18 0 0 1 -1 .42 5.34 5.34 0 0 1 -1.24.2 4.73 4.73 0 0 1 -1.24.11h-4.44v-8.43a2.67 2.67 0 0 1 .21-1.14c.2-.21.51-.21 1-.21h2.79a15 15 0 0 1 2.37.11 2.64 2.64 0 0 1 1.45.51 2.91 2.91 0 0 1 .93 1.24 12.4 12.4 0 0 1 .72 2.17h1.34v-5.47h-17.73v.82a2 2 0 0 0 .51.11 1.52 1.52 0 0 1 .62.31 1.52 1.52 0 0 1 .31.62c0 .31.11.62.11 1v19.63a2.71 2.71 0 0 1 -.11 1 .63.63 0 0 1 -.31.62.89.89 0 0 1 -.62.31 1.38 1.38 0 0 1 -.51.1v.83h18.38z"/><path d="m99.06 31.81a8.68 8.68 0 0 0 3.41-1 6.63 6.63 0 0 0 2.53-2.61 9.78 9.78 0 0 0 .93-4.65 9.45 9.45 0 0 0 -.62-3.61 5.7 5.7 0 0 0 -2-2.48 9.94 9.94 0 0 0 -3.51-1.35 25.9 25.9 0 0 0 -5.27-.41h-2.19v-6.09c0-.62.11-1 .42-1.24a3.26 3.26 0 0 1 1.65-.21h3.1a16.62 16.62 0 0 1 2.38.1 2.72 2.72 0 0 1 1.44.52 2.85 2.85 0 0 1 .93 1.24 12.4 12.4 0 0 1 .72 2.17h1.35v-5.68h-19v.82a2 2 0 0 0 .52.11 1.59 1.59 0 0 1 .62.31 1.82 1.82 0 0 1 .31.62c0 .31.1.62.1 1v19.63a3.28 3.28 0 0 1 -.1 1 .64.64 0 0 1 -.31.62.91.91 0 0 1 -.62.31 1.45 1.45 0 0 1 -.52.1v.97h9.61a25.87 25.87 0 0 0 4.12-.19zm-6.3-1.81a1 1 0 0 1 -.31-.73c0-.31-.11-.72-.11-1.24v-10.78h2.17c2 0 3.41.52 4.24 1.55s1.24 2.69 1.24 5a11.55 11.55 0 0 1 -.41 3.61 4.92 4.92 0 0 1 -1.14 2.07 6.37 6.37 0 0 1 -1.55.93 11.75 11.75 0 0 1 -1.86.2c-.62-.1-1-.1-1.45-.2a2 2 0 0 1 -.82-.41z"/><path d="m62.18 39.25h187.27v2.48h-187.27z"/><path d="m234.48 22.41c.51.73.93 1.35 1.44 2s.93 1.24 1.35 1.86a19.64 19.64 0 0 0 1.34 1.86 21.84 21.84 0 0 1 1.39 2.03 18.47 18.47 0 0 1 1 2l8.68.11c-.93-.93-1.75-1.86-2.68-2.79s-1.55-1.76-2.07-2.27c-.83-.93-1.55-1.76-2.17-2.48l-2-2.28c-.62-.72-1.24-1.54-1.76-2.27s-1.13-1.65-1.65-2.48l.41-.51c.62-.83 1.35-1.66 2.17-2.69a36.89 36.89 0 0 1 2.58-3 32.79 32.79 0 0 1 2.69-2.79 28.41 28.41 0 0 1 2.38-2h-6a13.32 13.32 0 0 1 -.93 1.86 20.13 20.13 0 0 1 -1.42 2.43c-.52.83-1.14 1.76-1.65 2.68s-1.14 1.76-1.76 2.59-1.14 1.65-1.65 2.27-.93 1.24-1.24 1.76z"/><path d="m233.75 31.19a2 2 0 0 0 -.51-.1 1.65 1.65 0 0 1 -.62-.31 1.52 1.52 0 0 1 -.31-.62c0-.31-.11-.62-.11-1v-19.66a2.71 2.71 0 0 1 .11-1 .62.62 0 0 1 .31-.62 1.65 1.65 0 0 1 .62-.31 1.41 1.41 0 0 1 .51-.1v-.96h-8.36v.82a1.88 1.88 0 0 0 .51.11 1.52 1.52 0 0 1 .62.31 1.52 1.52 0 0 1 .31.62c0 .31.11.62.11 1v19.63a2.71 2.71 0 0 1 -.11 1 .63.63 0 0 1 -.31.62.89.89 0 0 1 -.62.31 1.41 1.41 0 0 1 -.51.1v.83h8.36z"/><path d="m178.18 28.92c.31-1.44.93-3.51 1.76-6.09h8.16l1.13 3.3a28.88 28.88 0 0 1 1.14 3.72 9.42 9.42 0 0 1 .52 2.27h6.5c-.31-.51-.62-1.24-1-2.06a28.7 28.7 0 0 1 -1.44-3.62l-5.95-16.73a8.33 8.33 0 0 1 -.52-1.86 11.57 11.57 0 0 0 -.21-1.24h-7.27v.83a2.16 2.16 0 0 0 .52.1 1.74 1.74 0 0 1 .62.31 1.82 1.82 0 0 1 .31.62v.53a4 4 0 0 1 -.31 1.65l-4.14 10.11c-.73 1.86-1.45 3.51-2 4.75s-1 2.38-1.34 3.21-.72 1.55-1 2.06-.52.93-.73 1.34h4.65c.09-.72.29-1.75.6-3.2zm5.89-18.18 3.41 10.33h-7z"/><path d="m207.21 31.19h-.21a2.16 2.16 0 0 0 -.52-.1 1.74 1.74 0 0 1 -.62-.31 1.82 1.82 0 0 1 -.31-.62c0-.31-.1-.62-.1-1v-9.84h9.92v9.68a2.71 2.71 0 0 1 -.11 1 .63.63 0 0 1 -.31.62.89.89 0 0 1 -.62.31 1.41 1.41 0 0 1 -.51.1v.83h8.37v-.83a2.29 2.29 0 0 0 -.52-.1 1.82 1.82 0 0 1 -.62-.31 1.74 1.74 0 0 1 -.31-.62c0-.31-.1-.62-.1-1v-19.7a3 3 0 0 1 .1-1 .63.63 0 0 1 .31-.62 1.82 1.82 0 0 1 .62-.31 1.42 1.42 0 0 1 .52-.1v-.76h-8.19v.82a2.11 2.11 0 0 0 .52.11 1.52 1.52 0 0 1 .62.31 1.65 1.65 0 0 1 .31.62c0 .31.1.62.1 1v8.16h-9.91v-8.13a2.94 2.94 0 0 1 .1-1 .62.62 0 0 1 .31-.62 1.52 1.52 0 0 1 .62-.31 1.3 1.3 0 0 1 .52-.11v-.85h-8.37v.82a2 2 0 0 0 .52.11 1.59 1.59 0 0 1 .62.31 1.82 1.82 0 0 1 .31.62c0 .31.1.62.1 1v19.76a3.28 3.28 0 0 1 -.1 1 .63.63 0 0 1 -.31.62.91.91 0 0 1 -.62.31 1.45 1.45 0 0 1 -.52.1v.84h8.37z"/><path d="m45.14 9.19-1.55-2.19-28.59 16.45-13.84-8a12.45 12.45 0 0 0 -.62 2.69l14.56 8.37z"/><path d="m15 29.65-14.9-8.58a9.2 9.2 0 0 0 -.1 1.65 24.59 24.59 0 1 0 49.17 0 23.67 23.67 0 0 0 -2.69-11.15z"/><path d="m41.63 5c-.73-.72-1.45-1.24-2.17-1.86l-24.46 14.11-11.8-6.71c-.41.72-.82 1.55-1.24 2.37l12.91 7.44z"/><path d="m37 1.45a24.37 24.37 0 0 0 -2.91-1.45l-19.09 11.05-8.6-4.85c-.62.62-1.13 1.34-1.75 2.06l10.22 5.89z"/></g></svg>