<svg viewBox="0 0 114.94 50" xmlns="http://www.w3.org/2000/svg" xmlns:xlink="http://www.w3.org/1999/xlink"><linearGradient id="a" gradientTransform="matrix(31.43 0 0 35.78 15366.97 -1002.36)" gradientUnits="userSpaceOnUse" x1="-488.71" x2="-487.88" y1="29.05" y2="28.32"><stop offset="0" stop-color="#f7ac1e"/><stop offset="1" stop-color="#dc3b55"/></linearGradient><linearGradient id="b" gradientTransform="matrix(37.46 0 0 50 18421.13 -1080.22)" gradientUnits="userSpaceOnUse" x1="-491.26" x2="-491.26" y1="21.57" y2="22.59"><stop offset="0" stop-color="#385cfa"/><stop offset="1" stop-color="#94c2fc"/></linearGradient><g fill="#0f1735"><path d="m25.8 31.54a6.85 6.85 0 0 1 -3.43-.83 6.07 6.07 0 0 1 -2.37-2.33 7.34 7.34 0 0 1 0-6.76 6 6 0 0 1 2.33-2.32 6.86 6.86 0 0 1 3.38-.84 6.47 6.47 0 0 1 5 2.23.28.28 0 0 0 .39 0l2.56-2.49a.29.29 0 0 0 0-.39 9.69 9.69 0 0 0 -3.33-2.41 12.07 12.07 0 0 0 -4.82-1 11.81 11.81 0 0 0 -5.65 1.35 10.17 10.17 0 0 0 -4 3.73 10.28 10.28 0 0 0 -1.4 5.52 10.22 10.22 0 0 0 1.45 5.47 10 10 0 0 0 4 3.73 11.75 11.75 0 0 0 5.66 1.34 12.21 12.21 0 0 0 4.82-.93 9.46 9.46 0 0 0 3.11-2.16.3.3 0 0 0 0-.38l-2.41-2.67a.28.28 0 0 0 -.21-.1.28.28 0 0 0 -.2.1 6.44 6.44 0 0 1 -4.88 2.14z"/><path d="m55.5 32.52a12 12 0 0 1 -7.1 2.48v4a.27.27 0 0 1 -.27.27h-3.33a.26.26 0 0 1 -.28-.26v-4.01a12.14 12.14 0 0 1 -7.09-2.39 7.2 7.2 0 0 1 -2.49-5.79 7 7 0 0 1 2.49-5.69 12.36 12.36 0 0 1 7.12-2.33v-4.37a.32.32 0 0 1 .28-.29h3.32a.29.29 0 0 1 .29.29v4.36a12.34 12.34 0 0 1 7.06 2.32 7 7 0 0 1 2.5 5.64 7.24 7.24 0 0 1 -2.5 5.77zm-14.9-2.52a6.89 6.89 0 0 0 3.94 1.42v-9a7.16 7.16 0 0 0 -3.94 1.28 4.06 4.06 0 0 0 -1.24 3.12 4.29 4.29 0 0 0 1.27 3.18zm11.78 0a4.28 4.28 0 0 0 1.24-3.24 4 4 0 0 0 -1.24-3.1 7.28 7.28 0 0 0 -3.94-1.36v9.12a7 7 0 0 0 4-1.42z"/><path d="m76.4 28.09h-11.82a3.85 3.85 0 0 0 1.53 2.36 5 5 0 0 0 3 .85 5.84 5.84 0 0 0 2.23-.36 5.21 5.21 0 0 0 1.52-1 .23.23 0 0 1 .19-.07.26.26 0 0 1 .19.07l2 2.32a.29.29 0 0 1 0 .39 8.1 8.1 0 0 1 -6.3 2.39 9.89 9.89 0 0 1 -4.73-1.04 7.54 7.54 0 0 1 -3.16-3 8.15 8.15 0 0 1 -1.11-4.26 8.29 8.29 0 0 1 1.11-4.23 7.72 7.72 0 0 1 3-3 9.18 9.18 0 0 1 8.44 0 7.38 7.38 0 0 1 3 2.84 8.79 8.79 0 0 1 1.12 4.43 5.63 5.63 0 0 0 -.21 1.31zm-10.58-5.16a3.85 3.85 0 0 0 -1.24 2.49h7.77a4 4 0 0 0 -1.24-2.49 3.81 3.81 0 0 0 -2.57-.9 3.85 3.85 0 0 0 -2.72.9z"/><path d="m92.12 19.72a7.24 7.24 0 0 1 2.82 2.83 8.56 8.56 0 0 1 1 4.23 8.54 8.54 0 0 1 -.94 4.22 7.31 7.31 0 0 1 -2.85 2.8 8.13 8.13 0 0 1 -4 1 6.09 6.09 0 0 1 -4.73-1.9v5.94a.28.28 0 0 1 -.28.27h-3.82a.28.28 0 0 1 -.29-.26v-19.63a.27.27 0 0 1 .28-.27h3.69a.27.27 0 0 1 .27.27v1.53a6 6 0 0 1 5-2 8 8 0 0 1 3.85.97zm-1.85 10.28a4.37 4.37 0 0 0 1.1-3.16 4.38 4.38 0 0 0 -1.1-3.21 4 4 0 0 0 -5.74 0 4.47 4.47 0 0 0 -1.12 3.16 4.47 4.47 0 0 0 1.12 3.16 4.11 4.11 0 0 0 5.74.05z"/><path d="m114.94 19.21v15.12a.28.28 0 0 1 -.27.28h-3.58a.28.28 0 0 1 -.27-.28v-1.52a6 6 0 0 1 -4.89 2 8.09 8.09 0 0 1 -4-1 7 7 0 0 1 -2.83-2.81 8.44 8.44 0 0 1 -1-4.23 8.61 8.61 0 0 1 1-4.25 7.15 7.15 0 0 1 2.81-2.83 8.17 8.17 0 0 1 4-1 6 6 0 0 1 4.69 1.88v-1.36a.28.28 0 0 1 .28-.27h3.72a.26.26 0 0 1 .3.24zm-5.38 10.79a4.41 4.41 0 0 0 1.11-3.18 4.4 4.4 0 0 0 -1.11-3.19 4.09 4.09 0 0 0 -5.74 0 4.47 4.47 0 0 0 -1.12 3.16 4.49 4.49 0 0 0 1.12 3.17 4.27 4.27 0 0 0 5.74 0z"/></g><path d="m38.42 13.57-2.22 2.13a.28.28 0 0 1 -.39 0 14.29 14.29 0 1 0 -10.69 23.59c.09 0 .22 0 .22.16 0 .78-.07 3.21-.07 3.21a.26.26 0 0 1 -.24.24 17.72 17.72 0 0 1 -17.03-12.21 17.91 17.91 0 0 1 30.44-17.5.29.29 0 0 1 -.02.38z" fill="url(#a)"/><path d="m24.44 50a25 25 0 0 1 -13.44-45.76 24.42 24.42 0 0 1 14.07-4.24.26.26 0 0 1 .24.24v3.24a.16.16 0 0 1 -.14.13 21 21 0 0 0 -12 3.56 21.42 21.42 0 0 0 11.58 39.23h.25a21.16 21.16 0 0 0 10.51-2.73.29.29 0 0 1 .38.1l1.53 2.62a.35.35 0 0 1 -.14.4 24.84 24.84 0 0 1 -12.18 3.21z" fill="url(#b)"/></svg>