<svg viewBox="0 0 244.06 57.11" xmlns="http://www.w3.org/2000/svg"><path d="m0 0h244.06v57.11h-244.06z" fill="#ffdd2d"/><path d="m27.28 24.12h-8.28v-5.12h22.51v5.08h-8.24v14h-6z"/><path d="m64.55 19v19h-5.8v-11l-10 11.07h-5.11v-19.07h5.8v11.11l9.99-11.11z"/><path d="m74.54 38.07h-5.8v-19.07h5.8v7h9.32v-7h5.8v19h-5.8v-7h-9.32z"/><path d="m93.85 38.07v-19.07h5.8v5.12h6a12.41 12.41 0 0 1 4.24.52 6.42 6.42 0 0 1 4.32 6.36 6.57 6.57 0 0 1 -5 6.6 13.15 13.15 0 0 1 -3.64.44zm5.8-4.6h5a5.51 5.51 0 0 0 2.28-.28 2.4 2.4 0 0 0 1.44-2.19 2.11 2.11 0 0 0 -1.52-2.07 6.52 6.52 0 0 0 -2.24-.25h-5z"/><path d="m122.68 38.07h-5.8v-19.07h5.8v7.2h1.59l7-7.16h7.28l-9.28 9.11 9.64 9.92h-7.72l-6.92-7.2h-1.59z"/><path d="m163.43 28.59c0 5.68-4.68 10.08-12.44 10.08s-12.48-4.4-12.48-10.08 4.68-10.07 12.49-10.07 12.43 4.4 12.43 10.07zm-6.08 0c0-3.11-2.52-5.39-6.36-5.39s-6.36 2.28-6.36 5.39 2.48 5.41 6.37 5.41 6.35-2.29 6.35-5.41z"/><path d="m194.23 28.55c0 5.44-4.36 8.28-11.68 8.44v1.92h-5.8v-1.91c-7.28-.16-11.64-3-11.64-8.44s4.36-8.51 11.64-8.67v-1.89h5.8v1.92c7.32.08 11.68 3.2 11.68 8.63zm-17.48-4.55c-4 .16-5.76 2-5.76 4.55s1.76 4.2 5.76 4.36zm11.56 4.55c0-2.55-1.72-4.39-5.76-4.55v8.91c4.04-.16 5.76-1.8 5.76-4.36z"/><path d="m225 28.55c0 5.44-4.36 8.28-11.68 8.44v1.92h-5.8v-1.91c-7.28-.16-11.64-3-11.64-8.44s4.36-8.51 11.64-8.67v-1.89h5.8v1.92c7.35.08 11.68 3.2 11.68 8.63zm-17.45-4.55c-4 .16-5.76 2-5.76 4.55s1.76 4.2 5.76 4.36zm11.56 4.55c0-2.55-1.72-4.39-5.76-4.55v8.91c4.04-.16 5.76-1.8 5.76-4.36z"/></svg>