<svg height="71" viewBox="0 0 242 71" width="242" xmlns="http://www.w3.org/2000/svg"><g fill="#201600" transform="translate(-1)"><path d="m46.0941026 8.64c-3.3308235-.10398496-6.2989464 2.0897206-7.1792308 5.306087-.6020227 1.9421797-.6020227 4.0212985 0 5.9634782.6649241 2.7366324 2.9483513 4.7788612 5.7402564 5.1339131 2.8078743.6076452 5.6887974-.6540513 7.1479487-3.1304348 1.7765582-2.7903421 1.9548082-6.3103162.4692308-9.266087-1.0567525-2.4526141-3.4942294-4.01891152-6.1625641-3.95999998m-.0938462 24.19826088c-4.1789565.128665-8.248305-1.350116-11.3710256-4.1321739-3.3680763-3.073903-5.1818852-7.4967774-4.9425641-12.0521739-.0983951-3.8205307 1.2034323-7.54507472 3.66-10.47130438 2.2664789-2.61158167 5.3469717-4.3817838 8.7433333-5.02434783 4.2036657-.97370115 8.619479-.33124795 12.3720513 1.8 4.6157805 2.54656497 7.4983721 7.38822211 7.5389744 12.66260871.5073143 4.7155249-1.1493216 9.4069159-4.5046154 12.7565217-3.0826755 2.9641148-7.2224722 4.5704862-11.4961539 4.4608696"/><path d="m153.391538 19.706087c-1.405776-.9271263-3.016541-1.496669-4.692307-1.6591305-1.697268-.3519931-3.464399.0164215-4.88 1.0173913-1.333764 1.0261898-1.873317 2.7841262-1.345128 4.3826087.500837 1.4018458 1.784646 2.3730725 3.268974 2.4730435 1.489338.1411143 2.990192-.0957483 4.363846-.6886957 2.322572-.7544231 3.713747-3.1285039 3.237692-5.5252173m.172052-5.76c.070589-.8750986.070589-1.7544667 0-2.6295653-.250904-1.38076623-1.283976-2.48798099-2.643334-2.83304344-2.303837-.74871043-4.742429-.98900552-7.147948-.70434783-2.271696.12767591-4.492388.72454592-6.522308 1.75304348-.391026-2.14434782-.750769-4.21043478-1.141795-6.26086956 1.771992-.85216954 3.658118-1.44266304 5.599487-1.75304348 4.020185-.82524747 8.171057-.77185633 12.168718.15652174 4.238718 1.08 7.226154 3.5373913 8.055128 8.06086956.172529 1.13417943.251002 2.28069803.234616 3.42782613v10.0330434 1.3304348c.140769 2.3478261.359743 2.5669565 2.75282 2.9269565v4.8365218c-2.352871.7886892-4.909802.710983-7.210513-.2191305-1.216643-.6159181-2.061279-1.7817637-2.267948-3.1304347 0-.2817392-.078205-.5791305-.125128-.986087-2.909231 4.1791304-7.054103 5.1965217-11.636924 4.946087-4.665477-.0592297-8.693768-3.2841592-9.775641-7.826087-1.173076-6.6052174 2.158462-11.5356522 8.790257-12.5217391 4.207436-.626087 5.411795-.36 10.854872 1.5652174"/><path d="m114.461026 19.8469565-4.692308.2973913v12.0052174h-8.758974v-30.45913042h8.633846v11.23826092c1.877897.1578981 3.768956.0098887 5.599487-.4382609 2.194663-.6529171 3.897548-2.3925177 4.504615-4.60173915.563077-2.01913043.844616-4.11652174 1.266923-6.26086956h8.039488c.172051 6.26086956-1.06359 11.78608691-7.054103 15.22956521.234615.4382609.422308.813913.641282 1.1895652 2.455641 4.1008696 4.926923 8.2017392 7.366923 12.3182609.290507.5716315.541356 1.1625929.750769 1.7686956h-9.196923l-7.101025-12.333913"/><path d="m85.5564103 1.69043478h8.54v30.49043482h-8.6182052v-9.7669566c-1.5641025.3443479-3.0343589.7826087-4.5202564.986087-3.8113705.7375682-7.7560109-.1909089-10.8392308-2.5513043-2.3434473-1.9999336-3.8873372-4.7786932-4.3482051-7.826087-.7507692-3.74086957-.2815384-7.52869566-.4066666-11.37913044h8.8997435v1.36173913c0 2.47304348 0 4.94608696.1094872 7.40347831.0405528 1.4962335.6792611 2.9136365 1.7730067 3.9346049s2.5510812 1.5601397 4.0454549 1.4966994c1.9111.0784396 3.7953265-.4712891 5.3648718-1.5652174z"/><path d="m18.6284615 32.0713043h-8.571282v-22.58608691h-8.97794873v-7.74782609h26.43333333v7.66956522h-8.8841026z"/><path d="m5.77153846 65.3634783c-1.43897436 0-2.29923077-1.0486957-2.31487179-2.9113044.54039318-.8032741 1.44111558-1.2890744 2.40871795-1.2991304.54127904-.0361046 1.07233006.160044 1.46037272.539402s.59639448.906064.57296061 1.4484241c.03978658.5843444-.16825284 1.1584279-.57308338 1.5814199-.40483055.422992-.96899497.6557549-1.55409611.6411888m.70384616-6.2608696c-1.2394814-.0535462-2.43029887.4870634-3.20641026 1.4556522.01758132-.7124952.30887761-1.3908023.81333333-1.8939131.31446943-.3241963.70002523-.5706992 1.12615385-.72.47454827-.1939528.96700246-.3407458 1.47025641-.4382608.35974359-.0939131.62564102-.1408696.79769231-.172174l.90717948-.1565217.90717949-.1565217v-2.2539131c-1.24649846.1793427-2.47594439.462055-3.67564102.8452174-.89904875.2917462-1.748256.7192916-2.51820513 1.2678261-1.463114 1.1762075-2.2289913 3.0156232-2.03333334 4.8834783-.07344688 1.4687022.36312449 2.9176038 1.23564103 4.1008695.84179229 1.0548578 2.14091941 1.6378412 3.48794872 1.5652174 1.19478187.0380089 2.35316708-.4143661 3.20641025-1.2521739.8534786-.8142943 1.32474046-1.9506744 1.29820516-3.1304348.0593167-1.0313424-.32312814-2.03915-1.05158973-2.7711184-.72846158-.7319684-1.73397868-1.1188046-2.76482055-1.0636642"/><path d="m16.7984615 64.6434783c-.4659456.6004064-1.1966116.9338276-1.9551282.8921739-.8915384 0-1.5641025-.36-1.5641025-1.1269565 0-.7669566.656923-1.1269566 1.6892307-1.1269566.636543-.0201642 1.2640729.1545773 1.798718.5008696zm3.018718.6573913c-.4066667 0-.61-.2191305-.61-.6573913v-2.9113044c.0411559-.9649787-.38367-1.8909439-1.1417949-2.4886956-.85318-.6294548-1.8974668-.9446229-2.9561538-.892174-1.0833028-.0296566-2.1573627.206805-3.1282052.6886957v2.0347826c.7827953-.4744695 1.6812294-.7236106 2.5964103-.72 1.5641026 0 2.2835897.5321739 2.2835897 1.5652174v.2504348c-.7735597-.3766526-1.6270828-.5592971-2.486923-.5321739-.8546152-.0260951-1.6945356.22661-2.393077.72-.6709327.4882575-1.0480006 1.2842019-1.0010256 2.1130434-.0030637.8092618.3342532 1.5824724.9293941 2.1303923s1.3931836.8199847 2.198811.7496077c1.1107805.0401755 2.1879279-.3853174 2.9717949-1.173913.3462405.7500083 1.1351903 1.1921351 1.9551282 1.0956522.4661597.0334583.9297415-.0935653 1.3138462-.36v-1.7686957c-.1576455.0686108-.3287378.1007135-.5005129.0939131z"/><path d="m23.9620513 67.1791304v-3.3808695h3.5505128v3.3808695h2.424359v-8.6086956h-2.424359v3.1930435h-3.5505128v-3.1930435h-2.424359v8.6086956z"/><path d="m34.2851282 67.1791304v-3.7095652l3.3941026 3.7095652h3.1282051l-4.3169231-4.7269565 3.7382051-3.8817391h-2.9874358l-2.9561539 3.1460869v-3.1460869h-2.44v8.6086956z"/><path d="m48.8625641 65.1443478c.5399671-1.4505579.794892-2.9918266.7507692-4.5391304h2.6589744v4.5391304zm-1.2669231 4.2417392v-2.2069566h6.2564103v2.2069566h2.2992308v-4.2417392h-1.4233334v-6.573913h-7.2261538v1.6747826c.0998135 1.6960352-.2566681 3.3878272-1.0323077 4.8991304h-1.0948718v4.2417392z"/><path d="m63.4087179 60.6052174v6.573913h2.424359v-8.6086956h-7.4294872v2.5356522c.0397551.9994508-.0549391 1.9997137-.2815384 2.973913-.1876923.7669565-.5474359 1.0956522-1.1105128 1.0956522-.165756.0268862-.3347569.0268862-.5005129 0v1.9878261c.2852798.1248713.5965846.1785828.9071795.1565217 1.4502629.0368597 2.7083682-.9956552 2.9561539-2.426087.2542425-.9816612.3855909-1.9911361.3910256-3.0052173v-1.2208696z"/><path d="m71.37 62.5773913c-.8133333 0-1.2825641-.3756522-1.2825641-1.0486956 0-.6730435.4692308-1.0643479 1.2825641-1.0643479h1.7987179v2.1130435zm-1.6579487 4.6017391 1.9864102-2.8330434h1.4702564v2.8330434h2.424359v-8.6086956h-4.6923077c-2.2679487 0-3.3784615 1.1895652-3.3784615 2.8017391-.0899037 1.1390701.6166086 2.1898643 1.7048718 2.5356522l-2.3148718 3.2713043z"/><path d="m84.7430769 67.1947826v-6.573913h3.4253846v6.573913h2.44v-8.6086956h-8.3053846v8.6086956z"/><path d="m97.0838462 60.48c.6259788-.0201268 1.2302236.2308706 1.6579487.6886957.4376988.47081.6735421 1.0945546.656923 1.7373913.0151191.6332571-.2210907 1.2467147-.656923 1.7060869-.4277251.4578251-1.0319699.7088225-1.6579487.6886957-.8984017.0086248-1.7259374-.4870415-2.1428206-1.2834783v-2.2382609c.420619-.7949696 1.2439479-1.2941302 2.1428206-1.2991304m.6882051-2.1130435c-1.0946983-.0695477-2.1534592.4046001-2.8310257 1.2678261v-1.0486956h-2.44v12.0521739h2.44v-4.4921739c.6842575.8546067 1.7382919 1.3266379 2.8310257 1.267826 1.1081853.0286858 2.1705806-.4425494 2.8935897-1.2834782 1.544006-1.8777994 1.544006-4.5865484 0-6.4643478-.7172197-.8504627-1.781924-1.3284813-2.8935897-1.2991305"/><path d="m104.982564 61.9982609c.083193-1.0129919.956533-1.7759748 1.970769-1.7217392.4688-.0126203.923392.1617247 1.263687.4846483s.538391.7679486.550672 1.2370909zm2.377436 5.4156521c1.156546.0777125 2.306197-.2305476 3.268974-.8765217v-1.9408696c-.84308.484083-1.796496.7428208-2.768461.7513044-1.564103 0-2.612051-.626087-2.877949-1.8h6.178205v-.626087c.033344-1.1740674-.361387-2.3201589-1.110513-3.2243478-.734506-.8847467-1.838944-1.3766005-2.987435-1.3304348-1.184936-.0523136-2.337234.3964374-3.175129 1.2365218-.826554.860708-1.276783 2.0152414-1.251282 3.2086956-.043968 1.2489753.458666 2.455013 1.376411 3.3026087.938131.8310276 2.157396 1.2731864 3.409743 1.2365217z"/><path d="m115.29 65.16c.545678-1.4494026.805932-2.9907787.76641-4.5391304h2.690257v4.5391304zm-1.251282 4.226087v-2.1913044h6.25641v2.1913044h2.299231v-4.226087h-1.501538v-6.573913h-7.241795v1.6747826c.097519 1.695863-.258837 3.3870577-1.032308 4.8991304h-1.110513v4.226087z"/><path d="m126.176154 67.1947826v-6.573913h3.441025v6.573913h2.424359v-8.6086956h-8.289743v8.6086956z"/><path d="m138.516923 60.48c.630261-.0185718 1.238706.231808 1.67359.6886957.437699.47081.673542 1.0945546.656923 1.7373913.015119.6332571-.221091 1.2467147-.656923 1.7060869-.434884.4568876-1.043329.7072675-1.67359.6886957-.895514-.0019067-1.718026-.4945644-2.14282-1.2834783v-2.2382609c.428211-.7877582 1.246819-1.2840573 2.14282-1.2991304m.688205-2.1130435c-1.094203-.0668165-2.151753.4067891-2.831025 1.2678261v-1.0486956h-2.424359v12.0521739h2.424359v-4.4921739c.687475.85043 1.739259 1.3214533 2.831025 1.267826 1.112725.0289519 2.180011-.4419075 2.909231-1.2834782 1.544006-1.8777994 1.544006-4.5865484 0-6.4643478-.723487-.8510732-1.793052-1.3286926-2.909231-1.2991305"/><path d="m146.869231 67.1947826 3.894615-5.0713043v5.0713043h2.408718v-8.6086956h-2.28359l-3.894615 5.0713043v-5.0713043h-2.408718v8.6086956z"/><path d="m157.505128 67.1947826v-3.3808696h3.534872v3.3808696h2.44v-8.6086956h-2.44v3.1930434h-3.534872v-3.1930434h-2.424359v8.6086956z"/><path d="m167.656154 67.1947826 3.910256-5.0713043v5.0713043h2.393077v-8.6086956h-2.28359l-3.894615 5.0713043v-5.0713043h-2.393077v8.6086956z"/><path d="m178.151282 67.1947826v-5.3217391l2.12718 2.6765217h.969743l2.142821-2.6765217v5.3217391h2.283589v-8.6086956h-2.393077l-2.518205 3.2086956-2.502564-3.2086956h-2.393077v8.6086956z"/><path d="m192.76 64.6591304c-.472581.5902628-1.200379.9165485-1.955128.8765218-.891539 0-1.564103-.36-1.564103-1.1113044 0-.7513043.656923-1.1269565 1.689231-1.1269565.636543-.0201642 1.264073.1545772 1.798718.5008696zm3.018718.6573913c-.406667 0-.61-.2347826-.61-.6573913v-2.9113043c.04377-.9654905-.381578-1.8925942-1.141795-2.4886957-.849583-.6366122-1.896509-.952577-2.956154-.8921739-1.083303-.0296566-2.157362.206805-3.128205.6886957v2.1130435c.782169-.4777282 1.680072-.7321349 2.59641-.7356522 1.564103 0 2.28359.5478261 2.28359 1.5652174v.2660869c-.772198-.3820567-1.625787-.5700876-2.486923-.5478261-.855915-.018153-1.694954.2397745-2.393077.7356522-.668405.4832697-1.045509 1.2733946-1.001026 2.0973913-.003063.8092618.334254 1.5824723.929395 2.1303923.59514.5479199 1.393183.8199846 2.198811.7496077 1.107081.0454972 2.181476-.3811538 2.956153-1.173913.341255.75614 1.131372 1.205246 1.955129 1.1113043.465298.0250646.926209-.101227 1.313846-.36v-1.7843478c-.153735.0815045-.326814.1193923-.500513.1095652z"/><path d="m201.331282 67.1947826v-6.573913h2.721539v-2.0347826h-7.836154v2.0347826h2.674615v6.573913z"/><path d="m206.852564 61.9982609c.090995-1.0090307.959402-1.7677046 1.970769-1.7217392.469968-.016877.92698.1560464 1.268219.4798657s.538045.7713382.54614 1.2418735zm2.361795 5.4156521c1.161328.0764828 2.315544-.2315273 3.284615-.8765217v-1.9408696c-.838199.4821485-1.786071.7408433-2.75282.7513044-1.564103 0-2.627692-.626087-2.89359-1.8h6.178205v-.626087c.042395-1.178144-.359609-2.3291416-1.126154-3.2243478-.726598-.886222-1.827303-1.3789936-2.971794-1.3304348-1.215879-.0540676-2.395953.4194394-3.237693 1.2991305-.826554.8607079-1.276783 2.0152414-1.251282 3.2086956-.043968 1.2489753.458666 2.455013 1.37641 3.3026087.931684.8314255 2.146337 1.2739418 3.394103 1.2365217z"/><path d="m220.522821 60.6208696v6.573913h2.44v-8.6086956h-7.429488v2.5356521c.023885.9989536-.07062 1.9972198-.281538 2.9739131-.187692.7669565-.563077 1.0956521-1.126154 1.0956521-.165756.0268863-.334757.0268863-.500513 0v1.972174c.28528.1248713.596585.1785828.90718.1565217 1.452246.0587902 2.720368-.9752309 2.956154-2.4104348.260648-.986098.39726-2.0009014.406666-3.0208695v-1.2052174z"/><path d="m226.716667 61.9982609c.083193-1.0129919.956533-1.7759748 1.970769-1.7217392.468496-.0169221.923918.1564722 1.262694.480749.338775.3242768.532105.7718715.536024 1.2409902zm2.29923 5.4313043c1.1611.0741525 2.314583-.2336622 3.284616-.8765217v-1.9408696c-.843081.484083-1.796497.7428207-2.768462.7513044-1.564102 0-2.612051-.626087-2.877948-1.8h6.25641v-.626087c.042395-1.178144-.359609-2.3291417-1.126154-3.2243478-.729952-.8907454-1.837539-1.3840019-2.987436-1.3304348-1.215529-.0520134-2.394787.4211665-3.237692 1.2991304-.822335.8622887-1.267067 2.0171626-1.235641 3.2086957-.043969 1.2489753.458665 2.455013 1.37641 3.3026087.910166.8154848 2.094403 1.2570952 3.315897 1.2365217z"/><path d="m238.556923 57.6313043c.816093.0342926 1.61322-.2522037 2.221026-.7982608.589759-.554432.914252-1.3349093.891538-2.1443478h-1.845641c.014057.3417516-.117655.6733843-.362307.9122397-.244653.2388554-.5792.362434-.920257.3399342-.339758.0229331-.673029-.1010493-.915311-.3405106s-.370307-.5714047-.351612-.9116633h-1.83c-.015974.8185639.315072 1.6056381.91119 2.1663876.596117.5607496 1.401585.8427598 2.217015.776221zm-1.98641 9.5634783 3.910256-5.0713043v5.0713043h2.393077v-8.6086956h-2.28359l-3.894615 5.0713043v-5.0713043h-2.393077v8.6086956z"/></g></svg>