<svg viewBox="0 0 116 22" xmlns="http://www.w3.org/2000/svg" xmlns:xlink="http://www.w3.org/1999/xlink"><linearGradient id="a" gradientTransform="matrix(116 0 0 -22 28405 8592.04)" gradientUnits="userSpaceOnUse" x1="-244.87" x2="-243.87" y1="390.05" y2="390.05"><stop offset="0" stop-color="#6ed0f7"/><stop offset="1" stop-color="#eb8dbd"/></linearGradient><path d="m108 7.19a2.54 2.54 0 0 0 -1.87-2 14 14 0 0 0 -9.64.81c-.27-1.48-.53-2.9-.8-4.34a14.82 14.82 0 0 1 3.94-1.27 20.58 20.58 0 0 1 8.56.12c3 .74 5.09 2.44 5.67 5.55a12.2 12.2 0 0 1 .14 1.94v7c0 .3 0 .95.06 1.26.1 1.61.25 1.77 1.94 2v3.33a7.44 7.44 0 0 1 -5.07-.15 2.92 2.92 0 0 1 -1.61-2.22c0-.12 0-.25 0-.41v-.26c-2 2.87-5 3.58-8.19 3.4-3.61-.19-6.38-2.56-6.89-5.36-.82-4.55 1.52-7.95 6.2-8.63 3-.44 3.81-.25 7.63 1 0-.19 0-.39 0-.58a7.17 7.17 0 0 0 -.07-1.19zm-.1 5.78a7.51 7.51 0 0 0 -3.27-1.15 4.52 4.52 0 0 0 -3.44.71 2.69 2.69 0 0 0 -1 3 2.6 2.6 0 0 0 2.3 1.71 6.38 6.38 0 0 0 3.08-.47 3.32 3.32 0 0 0 2.31-3.77zm-74.3 9.03a11.82 11.82 0 0 1 -8.09-2.83 10.25 10.25 0 0 1 -3.51-8.26 10.45 10.45 0 0 1 2.6-7.17 11 11 0 0 1 6.22-3.44 12.51 12.51 0 0 1 8.79 1.23 10 10 0 0 1 5.39 8.68 10.54 10.54 0 0 1 -3.22 8.79 11.66 11.66 0 0 1 -8.18 3zm.08-16.6a5.1 5.1 0 0 0 -5.11 3.6 6.64 6.64 0 0 0 0 4.09 4.77 4.77 0 0 0 4.07 3.53 4.81 4.81 0 0 0 5.09-2.16 6.17 6.17 0 0 0 .29-6.38 4.64 4.64 0 0 0 -4.34-2.68zm43.32 7.6h3l.49.11.69 1.23c1.44 2.56 2.89 5.12 4.3 7.64h6.52c-.07-.17-.13-.32-.18-.47a4.94 4.94 0 0 0 -.35-.8q-1.66-2.86-3.35-5.71l-1.83-3.13c-.11-.18-.2-.37-.31-.57l-.16-.3c4.22-2.48 5.1-6.46 5-11h-5.82a12.9 12.9 0 0 1 -.64 4c0 .16-.08.32-.13.48a4.73 4.73 0 0 1 -3.23 3.37 7.36 7.36 0 0 1 -2.82.2c-.36-.05-.77-.05-1.18-.05v-8h-6v22h6zm-15.94-13h5.94v22h-6v-7l-1 .25a18.59 18.59 0 0 1 -2.11.46 9.13 9.13 0 0 1 -7.53-1.85 8.74 8.74 0 0 1 -3-5.6 49.2 49.2 0 0 1 -.24-5.45c0-.93 0-1.86 0-2.75h6v5.94a4.4 4.4 0 0 0 4.33 4.25 5.83 5.83 0 0 0 3.55-1.25zm-54.06 22h6v-16h7v-6h-20v6h7z" fill="url(#a)" fill-rule="evenodd"/></svg>