<svg viewBox="0 0 93.24 33.02" xmlns="http://www.w3.org/2000/svg"><g transform="translate(-19.81 -19.81)"><path d="m46.83 24.22h-22.21l1.6-4.4h22.21zm-.8 2.2h-22.22l-1.6 4.4h22.21zm-2.4 6.58h-22.22l-1.6 4.4h22.19z" fill="#009fdf"/><path d="m99.75 48.41h4a3.49 3.49 0 0 0 3.06-1.19 3.82 3.82 0 0 0 .78-2.51 3.48 3.48 0 0 0 -1.37-3 4 4 0 0 0 -2.51-.64h-3.96zm-5.25 4.43v-26.42h17.19l-1.51 4.43h-10.43v5.85h4.25c3.43 0 5.21.82 6.44 1.87a7.78 7.78 0 0 1 2.61 6.26 7.59 7.59 0 0 1 -3.11 6.54c-1.65 1.14-3.38 1.46-6.9 1.46zm-15.22 0v-22h-7.64v-4.42h21.21l-1.51 4.43h-6.76v22zm-21.17-15.84h3a6.37 6.37 0 0 0 1.83-.14 2.89 2.89 0 0 0 2-3 2.67 2.67 0 0 0 -2-2.93 7.28 7.28 0 0 0 -2-.18h-2.83zm0 4.57v6.93h3.66a3.93 3.93 0 0 0 2.83-.78 3.45 3.45 0 0 0 1.1-2.72 3.76 3.76 0 0 0 -.7-2.26c-.78-1-1.74-1.19-3.38-1.19zm8.46-2.79v.09a9.27 9.27 0 0 1 2.47 1.42 6.23 6.23 0 0 1 2.24 5.17c0 3.61-1.92 6.22-5.07 7a13.47 13.47 0 0 1 -3.84.37h-9.51v-26.41h8.46a15.64 15.64 0 0 1 4 .37c3.06.82 5.07 2.93 5.07 6.26a5.85 5.85 0 0 1 -1.69 4.3 6.41 6.41 0 0 1 -2.08 1.41z" fill="#0a2973"/></g></svg>